<?xml version="1.0" encoding="UTF-8"?>
<svg id="Layer_1" data-name="Layer 1" xmlns="http://www.w3.org/2000/svg" xmlns:xlink="http://www.w3.org/1999/xlink" viewBox="0 0 283.46 103.42">
  <defs>
    <style>
      .cls-1 {
        fill: #87888a;
      }

      .cls-2 {
        fill: url(#radial-gradient);
      }
    </style>
    <radialGradient id="radial-gradient" cx="43.24" cy="41.17" fx="43.24" fy="41.17" r="28.51" gradientUnits="userSpaceOnUse">
      <stop offset="0" stop-color="#cdcd00"/>
      <stop offset=".88" stop-color="#009bc2"/>
    </radialGradient>
  </defs>
  <path class="cls-2" d="m66.67,25.93c7.94,12.13,3.63,29.24-9.57,35.38-5.82,2.04-10.45,3.92-16.78,2.36-4.45-1.2-8.38-3.1-12.32-4.99-4.1-3.09-7.17-7.54-9.05-12.17-1.71-3.43-2.9-7.54-1.69-11.99,2.37,12.5,13.14,23.83,27.01,22.48,1.2-.17,2.91-1.02,3.94-2.39-13.18-2.42-23.42-14.43-17.41-28.11,1.54-2.05,2.41-4.62,4.63-6.15,3.43-1.7,6-5.12,10.28-5.12,3.08.18,5.99-.84,8.56.02,13.86,2.94,21.88,16.47,18.94,30.34-.69,3.76-2.58,7.7-5.84,10.6-2.06,2.74-2.92,5.31-6.35,7.01-8.57,4.26-18.16,5.62-27.74,2.69-5.82-2.24-9.92-5.32-13.68-10.3-3.93-6.17-5.97-11.99-6.98-19.19,1.67,20.55,21.5,35.48,41.89,28.33,7.54-2.9,13.37-9.22,15.95-16.92,1.21-4.45,1.9-8.21.73-12.64-1.51-4.48-3.23-7.53-4.55-9.24Z"/>
  <g>
    <path class="cls-1" d="m100.89,37.44h6.83c4.2,0,4.51,2.49,4.51,6.29,0,3.47-1.5,5.02-4.85,5.02h-14.83v2.46h14.83c4.96,0,7.37-2.51,7.37-7.66,0-4.58-.52-8.69-6.86-8.69h-6.94c-4.34,0-6.12-1.39-6.12-4.8v-1.83c0-2.76,1.96-4.16,5.83-4.16h14.26v-2.52h-14.32c-5.12,0-8.18,2.52-8.18,6.74v1.84c0,4.92,2.77,7.31,8.46,7.31Z"/>
    <path class="cls-1" d="m128.44,51.22h7c5.7,0,8.35-2.69,8.35-8.46v-12.34c0-5.96-2.73-8.86-8.35-8.86h-7c-5.93,0-8.81,2.9-8.81,8.86v12.34c0,5.77,2.8,8.46,8.81,8.46Zm-6.34-7.95v-13.37c0-4.14,1.85-5.83,6.4-5.83h6.83c4.26,0,6,1.69,6,5.83v13.49c0,3.81-1.74,5.37-6,5.37h-6.83c-4.55,0-6.4-1.59-6.4-5.49Z"/>
    <path class="cls-1" d="m158.29,51.22h10.87v-2.46h-10.76c-4.49,0-6.58-1.92-6.58-6.06v-13.09c0-3.93,1.71-5.54,5.89-5.54h11.33v-2.52h-11.62c-5.35,0-8.06,2.79-8.06,8.29v13.09c0,5.58,2.92,8.29,8.92,8.29Z"/>
    <rect class="cls-1" x="174.23" y="12.19" width="2.41" height="39.02"/>
    <path class="cls-1" d="m186.74,17.61c0-1.04-.88-1.92-1.92-1.92-.96,0-1.86.88-1.86,1.8,0,1.18.78,2.04,1.86,2.04s1.92-.88,1.92-1.92Z"/>
    <rect class="cls-1" x="183.7" y="21.55" width="2.46" height="29.67"/>
    <path class="cls-1" d="m195.46,29.78c0-3.74,2.05-5.71,5.94-5.71.33,0,.67-.01,1.01-.02.34-.01.68-.02,1.03-.02.81,0,1.41.06,1.95.21,2.96.69,3.56,2.97,3.56,6.41v20.57h2.46v-20.57c0-4.49,1.61-6.57,5.08-6.57h.73c4.71,0,7.57.38,7.57,5.71v21.43h2.46v-20.63c0-5.91-2.73-9.04-7.89-9.04h-1.13c-3.28,0-6.35.26-7.95,3.22-1.27-2.11-3.37-3.22-6.12-3.22h-2.87c-5.39,0-8.24,3.12-8.24,9.04v20.63h2.41v-21.43Z"/>
    <path class="cls-1" d="m241.58,51.22h8.72c4.98,0,7.72-2.9,7.72-8.18v-13.03c0-5.61-3.06-8.46-9.09-8.46h-15.35v2.52h16.21c3.76,0,5.83,1.99,5.83,5.6v1.53h-14.21c-4.79,0-7.89,3.12-7.89,7.95v4.3c0,4.72,3.16,7.78,8.06,7.78Zm-.23-17.62h14.21v9.84c0,3.48-1.8,5.31-5.2,5.31h-8.9c-3.38,0-5.49-2.08-5.49-5.43v-4.25c0-3.33,2.11-5.48,5.37-5.48Z"/>
    <path class="cls-1" d="m95.78,77.74c.26,0,.36-.24.45-.45l2.96-7.49h-.65l-2.74,6.97-2.76-6.97h-.65l2.98,7.52c.06.16.16.42.41.42Z"/>
    <path class="cls-1" d="m101.71,70.41h3.3v-.61h-3.26c-1.14,0-1.9.75-1.9,1.85v4.23c0,1.07.73,1.79,1.83,1.79h3.31v-.6h-3.28c-.78,0-1.26-.48-1.26-1.24v-1.74h4.54l.02-.6h-4.57v-1.83c0-.78.48-1.24,1.27-1.24Z"/>
    <path class="cls-1" d="m106.95,70.1c-.09-.15-.22-.37-.45-.37-.18,0-.35.16-.35.34v7.6h.6v-6.78l4.31,6.49c.08.13.23.37.45.37.33,0,.33-.37.33-.52v-7.43h-.6v6.76l-4.29-6.46Z"/>
    <polygon class="cls-1" points="112.62 70.41 114.86 70.41 114.86 77.67 115.47 77.67 115.47 70.41 117.73 70.41 117.73 69.8 112.62 69.8 112.62 70.41"/>
    <rect class="cls-1" x="118.51" y="69.8" width=".6" height="7.87"/>
    <path class="cls-1" d="m122.92,77.67h3.52l.87-2.25h3.81l.87,2.25h.71l-3.05-7.62c-.06-.13-.16-.34-.43-.34-.2,0-.35.12-.44.34l-2.93,7.3v-.28h-2.94c-1.02,0-1.65-.22-1.65-1.3v-5.97h-.6v5.97c0,1.58.91,1.9,2.27,1.9Zm4.63-2.87l1.66-4.28,1.65,4.28h-3.31Z"/>
    <polygon class="cls-1" points="136.27 78.94 136.97 77.89 136.28 77.89 135.63 78.94 136.27 78.94"/>
    <path class="cls-1" d="m135.3,70.41h3.31v-.61h-3.32c-1.17,0-1.87.66-1.87,1.76v4.24c0,1.25.66,1.86,2,1.86h3.16v-.6h-3.16c-.97,0-1.4-.4-1.4-1.29v-4.24c0-.98.8-1.13,1.28-1.13Z"/>
    <path class="cls-1" d="m142.43,68.37c-.24-.14-.5-.28-.79-.28s-.51.12-.73.23c-.09.04-.17.09-.26.12l-.07.03v.54l.15-.06c.08-.03.16-.07.24-.11.21-.1.44-.21.65-.21s.44.12.68.26c.27.14.54.3.84.3.26,0,.49-.12.72-.24.08-.04.16-.09.24-.12l.07-.03v-.58l-.3.14c-.24.12-.55.27-.78.27-.22,0-.43-.12-.66-.25Z"/>
    <path class="cls-1" d="m142.43,69.71c-.2,0-.35.12-.44.34l-3.05,7.61h.71l.87-2.25h3.81l.87,2.25h.71l-3.06-7.62c-.07-.14-.16-.34-.43-.34Zm-1.66,5.09l1.66-4.28,1.65,4.28h-3.31Z"/>
    <path class="cls-1" d="m152.2,75.72v-3.94c0-1.3-.72-1.98-2.09-1.98h-1.36c-1.37,0-2.09.68-2.09,1.98v3.94c0,1.26.74,1.95,2.09,1.95h1.36c1.35,0,2.09-.69,2.09-1.95Zm-3.47-5.31h1.4c1.02,0,1.47.43,1.47,1.4v3.91c0,.93-.45,1.35-1.47,1.35h-1.4c-1.03,0-1.48-.43-1.48-1.38v-3.87c0-.97.46-1.4,1.48-1.4Z"/>
    <path class="cls-1" d="m156.75,75.38v.57c0,1.13.96,1.72,1.91,1.72h1.68c.62,0,1.07-.09,1.5-.5l.44.45.9.05-.97-.98c.19-.35.21-.68.21-.98v-1.92h-.61v1.96c0,.15,0,.31-.06.48l-2.43-2.44c.08-.04.16-.07.24-.11.81-.38,1.72-.8,1.72-1.87v-.38c0-.97-.61-1.62-1.52-1.62h-.94c-.93,0-1.58.65-1.58,1.57,0,1.13.19,1.33.74,1.93.08.09.17.18.26.29-.78.38-1.51.76-1.51,1.79Zm2.06-4.97h.95c.6,0,.92.35.92.99v.41c0,.41-.22.71-.72.97l-1.12.56c-.08-.09-.17-.18-.26-.26-.37-.37-.72-.72-.72-1.25v-.46c0-.56.39-.96.94-.96Zm1.54,6.66h-1.63c-.66,0-1.37-.3-1.37-1.15v-.57c0-.68.58-.94,1.19-1.22l.2-.09,2.68,2.7c-.3.31-.61.33-1.07.33Z"/>
    <path class="cls-1" d="m170.01,69.71c-.2,0-.35.12-.44.34l-3.05,7.61h.71l.87-2.25h3.82l.87,2.25h.71l-3.06-7.62c-.06-.13-.15-.34-.43-.34Zm-1.66,5.09l1.66-4.28,1.65,4.28h-3.31Z"/>
    <path class="cls-1" d="m178.09,74.41c1.11,0,1.82-.69,1.82-1.75v-1.03c0-1.16-.72-1.83-1.98-1.83h-3.71v7.87h.6v-3.2s.08.06.12.09l4.15,3.11h.99l-4.34-3.26h2.36Zm1.21-2.81v1.1c0,.69-.44,1.09-1.22,1.09l-2.95.02c-.12,0-.23.02-.3.07v-3.48h3.11c.51,0,1.37.15,1.37,1.19Z"/>
    <path class="cls-1" d="m184.53,71.56v4.24c0,1.24.67,1.86,2,1.86h3.16v-.6h-3.16c-.97,0-1.4-.4-1.4-1.29v-4.24c0-.98.8-1.13,1.28-1.13h3.31v-.61h-3.32c-1.17,0-1.87.66-1.87,1.76Z"/>
    <path class="cls-1" d="m195.93,75.72v-3.94c0-1.3-.72-1.98-2.09-1.98h-1.36c-1.37,0-2.1.68-2.1,1.98v3.94c0,1.26.74,1.95,2.1,1.95h1.36c1.35,0,2.09-.69,2.09-1.95Zm-3.47-5.31h1.4c1.02,0,1.47.43,1.47,1.4v3.91c0,.93-.45,1.35-1.47,1.35h-1.4c-1.03,0-1.48-.43-1.48-1.38v-3.87c0-.97.46-1.4,1.48-1.4Z"/>
    <path class="cls-1" d="m198.27,70.09c-.09-.14-.22-.36-.44-.36-.18,0-.35.16-.35.34v7.6h.6v-6.78l4.31,6.49c.08.13.23.37.45.37.33,0,.33-.37.33-.52v-7.43h-.6v6.76l-4.29-6.47Z"/>
    <path class="cls-1" d="m204.71,69.8v7.87h3.88c1.12,0,1.85-.77,1.85-1.96v-4.04c0-1.13-.72-1.87-1.83-1.87h-3.9Zm.6.61h3.28c.76,0,1.25.49,1.25,1.25v4.06c0,.83-.49,1.35-1.27,1.35h-3.27v-6.66Z"/>
    <rect class="cls-1" x="211.99" y="69.8" width=".6" height="7.87"/>
    <path class="cls-1" d="m216.01,70.41h3.31v-.61h-3.32c-1.17,0-1.87.66-1.87,1.76v4.24c0,1.25.66,1.86,2,1.86h3.16v-.6h-3.16c-.97,0-1.4-.4-1.4-1.29v-4.24c0-.98.8-1.13,1.27-1.13Z"/>
    <rect class="cls-1" x="220.48" y="69.8" width=".6" height="7.87"/>
    <path class="cls-1" d="m224.72,69.8c-1.37,0-2.09.68-2.09,1.98v3.94c0,1.26.74,1.95,2.09,1.95h1.36c1.35,0,2.1-.69,2.1-1.95v-3.94c0-1.3-.73-1.98-2.1-1.98h-1.36Zm-.01.61h1.4c1.02,0,1.47.43,1.47,1.4v3.91c0,.93-.45,1.35-1.47,1.35h-1.4c-1.02,0-1.48-.43-1.48-1.38v-3.87c0-.97.46-1.4,1.48-1.4Z"/>
    <path class="cls-1" d="m235.08,77.75c.33,0,.33-.37.33-.52v-7.43h-.6v6.76l-4.3-6.47c-.09-.14-.22-.35-.44-.35-.18,0-.35.16-.35.34v7.6h.6v-6.78l4.31,6.49c.07.12.22.38.45.38Z"/>
    <path class="cls-1" d="m239.62,69.71c-.2,0-.35.12-.44.34l-3.05,7.61h.71l.87-2.25h3.81l.87,2.25h.71l-3.05-7.62c-.06-.13-.16-.34-.43-.34Zm-1.66,5.09l1.66-4.28,1.65,4.28h-3.31Z"/>
    <path class="cls-1" d="m243.83,69.8v7.87h3.88c1.13,0,1.85-.77,1.85-1.96v-4.04c0-1.13-.72-1.87-1.83-1.87h-3.91Zm.6.61h3.28c.76,0,1.25.49,1.25,1.25v4.06c0,.83-.48,1.35-1.27,1.35h-3.27v-6.66Z"/>
    <path class="cls-1" d="m253.21,69.8c-1.37,0-2.09.68-2.09,1.98v3.94c0,1.26.74,1.95,2.09,1.95h1.37c1.35,0,2.09-.69,2.09-1.95v-3.94c0-1.3-.72-1.98-2.09-1.98h-1.37Zm-.01.61h1.4c1.02,0,1.47.43,1.47,1.4v3.91c0,.93-.45,1.35-1.47,1.35h-1.4c-1.03,0-1.48-.43-1.48-1.38v-3.87c0-.97.46-1.4,1.48-1.4Z"/>
  </g>
</svg>