<svg width="24" height="24" viewBox="0 0 24 24" fill="none" xmlns="http://www.w3.org/2000/svg">
<path d="M18.2875 3.84126H14.2643C13.86 2.72729 12.8013 1.92062 11.55 1.92062C10.2988 1.92062 9.24001 2.72729 8.83576 3.84126H4.81251C3.75376 3.84126 2.88751 4.70554 2.88751 5.76189V19.2063C2.88751 20.2627 3.75376 21.127 4.81251 21.127H18.2875C19.3463 21.127 20.2125 20.2627 20.2125 19.2063V5.76189C20.2125 4.70554 19.3463 3.84126 18.2875 3.84126ZM11.55 3.60118C11.7618 3.60118 11.9446 3.69721 12.0794 3.84126C12.1949 3.9661 12.2719 4.13896 12.2719 4.32142C12.2719 4.71515 11.9446 5.04166 11.55 5.04166C11.1554 5.04166 10.8281 4.71515 10.8281 4.32142C10.8281 4.13896 10.9051 3.9661 11.0206 3.84126C11.1554 3.69721 11.3383 3.60118 11.55 3.60118ZM18.2875 19.2063H4.81251V5.76189H18.2875V19.2063ZM11.55 6.72221C9.96189 6.72221 8.66251 8.01864 8.66251 9.60316C8.66251 11.1877 9.96189 12.4841 11.55 12.4841C13.1381 12.4841 14.4375 11.1877 14.4375 9.60316C14.4375 8.01864 13.1381 6.72221 11.55 6.72221ZM11.55 10.5635C11.0206 10.5635 10.5875 10.1313 10.5875 9.60316C10.5875 9.07499 11.0206 8.64285 11.55 8.64285C12.0794 8.64285 12.5125 9.07499 12.5125 9.60316C12.5125 10.1313 12.0794 10.5635 11.55 10.5635ZM5.77501 16.7767V18.246H17.325V16.7767C17.325 14.3759 13.5039 13.3388 11.55 13.3388C9.59614 13.3388 5.77501 14.3663 5.77501 16.7767ZM7.99839 16.3254C8.66251 15.7876 10.2891 15.2498 11.55 15.2498C12.8109 15.2498 14.4471 15.7876 15.1016 16.3254H7.99839Z" fill="#555555"/>
</svg>
