<svg width="24" height="24" viewBox="0 0 24 24" fill="none" xmlns="http://www.w3.org/2000/svg">
<path d="M17.325 9.60316L15.9679 8.23951L9.62501 14.568L7.13214 12.0904L5.77501 13.4444L9.62501 17.2857L17.325 9.60316ZM18.2875 3.84126H14.2643C13.86 2.72729 12.8013 1.92062 11.55 1.92062C10.2988 1.92062 9.24001 2.72729 8.83576 3.84126H4.81251C4.67776 3.84126 4.55264 3.85086 4.42751 3.87967C4.05214 3.9565 3.71526 4.14856 3.45539 4.40785C3.28214 4.5807 3.13776 4.79197 3.04151 5.02245C2.94526 5.24332 2.88751 5.493 2.88751 5.76189V19.2063C2.88751 19.4656 2.94526 19.7249 3.04151 19.9554C3.13776 20.1859 3.28214 20.3875 3.45539 20.57C3.71526 20.8293 4.05214 21.0213 4.42751 21.0982C4.55264 21.1174 4.67776 21.127 4.81251 21.127H18.2875C19.3463 21.127 20.2125 20.2627 20.2125 19.2063V5.76189C20.2125 4.70554 19.3463 3.84126 18.2875 3.84126ZM11.55 3.60118C11.9446 3.60118 12.2719 3.92769 12.2719 4.32142C12.2719 4.71515 11.9446 5.04166 11.55 5.04166C11.1554 5.04166 10.8281 4.71515 10.8281 4.32142C10.8281 3.92769 11.1554 3.60118 11.55 3.60118ZM18.2875 19.2063H4.81251V5.76189H18.2875V19.2063Z" fill="#7B7B7B"/>
<path d="M17.325 9.60316L15.9679 8.23951L9.62501 14.568L7.13214 12.0904L5.77501 13.4444L9.62501 17.2857L17.325 9.60316ZM18.2875 3.84126H14.2643C13.86 2.72729 12.8013 1.92062 11.55 1.92062C10.2988 1.92062 9.24001 2.72729 8.83576 3.84126H4.81251C4.67776 3.84126 4.55264 3.85086 4.42751 3.87967C4.05214 3.9565 3.71526 4.14856 3.45539 4.40785C3.28214 4.5807 3.13776 4.79197 3.04151 5.02245C2.94526 5.24332 2.88751 5.493 2.88751 5.76189V19.2063C2.88751 19.4656 2.94526 19.7249 3.04151 19.9554C3.13776 20.1859 3.28214 20.3875 3.45539 20.57C3.71526 20.8293 4.05214 21.0213 4.42751 21.0982C4.55264 21.1174 4.67776 21.127 4.81251 21.127H18.2875C19.3463 21.127 20.2125 20.2627 20.2125 19.2063V5.76189C20.2125 4.70554 19.3463 3.84126 18.2875 3.84126ZM11.55 3.60118C11.9446 3.60118 12.2719 3.92769 12.2719 4.32142C12.2719 4.71515 11.9446 5.04166 11.55 5.04166C11.1554 5.04166 10.8281 4.71515 10.8281 4.32142C10.8281 3.92769 11.1554 3.60118 11.55 3.60118ZM18.2875 19.2063H4.81251V5.76189H18.2875V19.2063Z" fill="black" fill-opacity="0.2"/>
</svg>
