<svg width="46" height="45" viewBox="0 0 46 45" fill="none" xmlns="http://www.w3.org/2000/svg">
<rect width="46" height="45" rx="22.5" fill="#ABABAB"/>
<path fill-rule="evenodd" clip-rule="evenodd" d="M29.9003 18C29.9003 21.7279 26.811 24.75 23.0003 24.75C19.1895 24.75 16.1003 21.7279 16.1003 18C16.1003 14.2721 19.1895 11.25 23.0003 11.25C26.811 11.25 29.9003 14.2721 29.9003 18ZM27.6003 18C27.6003 20.4853 25.5408 22.5 23.0003 22.5C20.4598 22.5 18.4003 20.4853 18.4003 18C18.4003 15.5147 20.4598 13.5 23.0003 13.5C25.5408 13.5 27.6003 15.5147 27.6003 18Z" fill="white"/>
<path d="M23.0003 28.125C15.5547 28.125 9.21095 32.432 6.79443 38.466C7.38311 39.0379 8.00324 39.5788 8.65206 40.0861C10.4515 34.5462 16.0965 30.375 23.0003 30.375C29.9041 30.375 35.5491 34.5462 37.3485 40.0861C37.9973 39.5788 38.6175 39.0379 39.2061 38.4661C36.7896 32.432 30.4458 28.125 23.0003 28.125Z" fill="white"/>
</svg>
