<svg width="31" height="30" viewBox="0 0 31 30" fill="none" xmlns="http://www.w3.org/2000/svg">
<rect x="0.880249" y="0.969147" width="29.2216" height="28.3473" rx="14.1736" fill="#ABABAB"/>
<path fill-rule="evenodd" clip-rule="evenodd" d="M19.8744 12.3081C19.8744 14.6564 17.912 16.5602 15.4912 16.5602C13.0704 16.5602 11.108 14.6564 11.108 12.3081C11.108 9.9597 13.0704 8.05597 15.4912 8.05597C17.912 8.05597 19.8744 9.9597 19.8744 12.3081ZM18.4134 12.3081C18.4134 13.8736 17.1051 15.1428 15.4912 15.1428C13.8773 15.1428 12.569 13.8736 12.569 12.3081C12.569 10.7425 13.8773 9.47333 15.4912 9.47333C17.1051 9.47333 18.4134 10.7425 18.4134 12.3081Z" fill="white"/>
<path d="M15.4912 18.6862C10.7614 18.6862 6.7315 21.3993 5.19641 25.2004C5.57037 25.5607 5.96431 25.9014 6.37647 26.2209C7.51958 22.7311 11.1056 20.1036 15.4912 20.1036C19.8768 20.1036 23.4628 22.7311 24.6059 26.221C25.0181 25.9014 25.412 25.5607 25.786 25.2004C24.2509 21.3993 20.221 18.6862 15.4912 18.6862Z" fill="white"/>
</svg>
