<svg width="28" height="28" viewBox="0 0 28 28" fill="none" xmlns="http://www.w3.org/2000/svg">
<g clip-path="url(#clip0_2009_4179)">
<path d="M26.6875 4.375V8.3125H1.3125V4.375C1.3125 3.89375 1.70625 3.5 2.1875 3.5H25.8125C26.2938 3.5 26.6875 3.89375 26.6875 4.375Z" fill="#FC6067"/>
<path d="M26.6875 8.3125V25.8125C26.6875 26.2938 26.2938 26.6875 25.8125 26.6875H2.1875C1.70625 26.6875 1.3125 26.2938 1.3125 25.8125V8.3125H26.6875Z" fill="#E7EAEF"/>
<path d="M6.125 1.3125C6.60625 1.3125 7 1.70625 7 2.1875V4.8125C7 5.29375 6.60625 5.6875 6.125 5.6875C5.64375 5.6875 5.25 5.29375 5.25 4.8125V2.1875C5.25 1.70625 5.64375 1.3125 6.125 1.3125Z" fill="#E7EAEF"/>
<path d="M11.375 1.3125C11.8563 1.3125 12.25 1.70625 12.25 2.1875V4.8125C12.25 5.29375 11.8563 5.6875 11.375 5.6875C10.8937 5.6875 10.5 5.29375 10.5 4.8125V2.1875C10.5 1.70625 10.8937 1.3125 11.375 1.3125Z" fill="#E7EAEF"/>
<path d="M16.625 1.3125C17.1063 1.3125 17.5 1.70625 17.5 2.1875V4.8125C17.5 5.29375 17.1063 5.6875 16.625 5.6875C16.1437 5.6875 15.75 5.29375 15.75 4.8125V2.1875C15.75 1.70625 16.1437 1.3125 16.625 1.3125Z" fill="#E7EAEF"/>
<path d="M21.875 1.3125C22.3563 1.3125 22.75 1.70625 22.75 2.1875V4.8125C22.75 5.29375 22.3563 5.6875 21.875 5.6875C21.3937 5.6875 21 5.29375 21 4.8125V2.1875C21 1.70625 21.3937 1.3125 21.875 1.3125Z" fill="#E7EAEF"/>
<path d="M1.3125 9.625H25.375V25.8125C25.375 26.1352 25.2492 26.4469 25.0359 26.6875H25.8125C26.2938 26.6875 26.6875 26.2938 26.6875 25.8125V8.3125H1.3125V9.625Z" fill="#D8DBE0"/>
<path d="M25.3752 8.3125H26.6877V4.375C26.6877 3.89375 26.2939 3.5 25.8127 3.5H25.0361C25.2549 3.74063 25.3752 4.05234 25.3752 4.375V8.3125Z" fill="#FB4B5B"/>
<path d="M21.4375 18.375V20.218C21.3008 20.1523 21.1531 20.125 21 20.125C20.125 20.125 20.125 21 19.25 21C18.375 21 18.375 20.125 17.5 20.125C16.625 20.125 16.625 21 15.75 21C14.875 21 14.875 20.125 14 20.125C13.125 20.125 13.125 21 12.25 21C11.375 21 11.375 20.125 10.5 20.125C9.625 20.125 9.625 21 8.75 21C8.40547 20.9945 8.08828 20.8305 7.875 20.5625C7.66172 20.2945 7.34453 20.1305 7 20.125C6.84688 20.125 6.69922 20.1523 6.5625 20.218V18.375C6.5625 17.8937 6.95625 17.5 7.4375 17.5H20.5625C21.0437 17.5 21.4375 17.8937 21.4375 18.375Z" fill="#FC6067"/>
<path d="M21.4375 20.218V24.0625H6.5625V20.218C6.69922 20.1523 6.84688 20.125 7 20.125C7.34453 20.1305 7.66172 20.2945 7.875 20.5625C8.08828 20.8305 8.40547 20.9945 8.75 21C9.625 21 9.625 20.125 10.5 20.125C11.375 20.125 11.375 21 12.25 21C13.125 21 13.125 20.125 14 20.125C14.875 20.125 14.875 21 15.75 21C16.625 21 16.625 20.125 17.5 20.125C18.375 20.125 18.375 21 19.25 21C20.125 21 20.125 20.125 21 20.125C21.1531 20.125 21.3008 20.1523 21.4375 20.218Z" fill="#FCB860"/>
<path d="M21.4375 20.218C21.3008 20.1523 21.1531 20.125 21 20.125C20.6555 20.1305 20.3383 20.2945 20.125 20.5625V24.0625H21.4375V20.218Z" fill="#FCAA52"/>
<path d="M21.0002 20.125C21.1533 20.125 21.301 20.1523 21.4377 20.218V18.375C21.4377 17.8937 21.0439 17.5 20.5627 17.5H19.7861C20.0049 17.7406 20.1252 18.0523 20.1252 18.375V20.5625C20.3385 20.2945 20.6557 20.1305 21.0002 20.125Z" fill="#FB4B5B"/>
<path d="M13.125 14.875H14.875V17.5H13.125V14.875Z" fill="#D8DBE0"/>
<path d="M14.875 12.6875C14.875 13.1688 14.4813 13.5625 14 13.5625C13.5187 13.5625 13.125 13.1688 13.125 12.6875C13.125 12.2062 14 10.9375 14 10.9375C14 10.9375 14.875 12.2062 14.875 12.6875Z" fill="#FCB860"/>
<path d="M8.75 14.875H10.5V17.5H8.75V14.875Z" fill="#D8DBE0"/>
<path d="M10.5 12.6875C10.5 13.1688 10.1063 13.5625 9.625 13.5625C9.14375 13.5625 8.75 13.1688 8.75 12.6875C8.75 12.2062 9.625 10.9375 9.625 10.9375C9.625 10.9375 10.5 12.2062 10.5 12.6875Z" fill="#FCB860"/>
<path d="M17.5 14.875H19.25V17.5H17.5V14.875Z" fill="#D8DBE0"/>
<path d="M19.25 12.6875C19.25 13.1688 18.8563 13.5625 18.375 13.5625C17.8937 13.5625 17.5 13.1688 17.5 12.6875C17.5 12.2062 18.375 10.9375 18.375 10.9375C18.375 10.9375 19.25 12.2062 19.25 12.6875Z" fill="#FCB860"/>
<path d="M14.0004 14C14.7277 14 15.3129 13.4148 15.3129 12.6875C15.3129 12.1297 14.6457 11.1016 14.3613 10.6859C14.2246 10.4891 13.9512 10.4398 13.7543 10.5766C13.7105 10.6039 13.6777 10.6422 13.6449 10.6859C13.3551 11.1016 12.6934 12.1242 12.6934 12.6875C12.6934 13.2508 13.2785 14 14.0059 14H14.0004ZM14.0004 11.7469C14.1973 12.0367 14.3449 12.3539 14.4379 12.6875C14.4379 12.9281 14.241 13.125 14.0004 13.125C13.7598 13.125 13.5629 12.9281 13.5629 12.6875C13.6613 12.3539 13.8035 12.0367 14.0004 11.7469Z" fill="#173851"/>
<path d="M9.62539 14C10.3527 14 10.9379 13.4148 10.9379 12.6875C10.9379 12.1297 10.2707 11.1016 9.98633 10.6859C9.84961 10.4891 9.57617 10.4398 9.3793 10.5766C9.33555 10.6039 9.30273 10.6422 9.26992 10.6859C8.98008 11.1016 8.31836 12.1242 8.31836 12.6875C8.31836 13.2508 8.90352 14 9.63086 14H9.62539ZM9.62539 11.7469C9.82227 12.0367 9.96992 12.3539 10.0629 12.6875C10.0629 12.9281 9.86602 13.125 9.62539 13.125C9.38477 13.125 9.18789 12.9281 9.18789 12.6875C9.28633 12.3539 9.42852 12.0367 9.62539 11.7469Z" fill="#173851"/>
<path d="M8.3125 17.0625H7.4375C6.71016 17.0625 6.125 17.6477 6.125 18.375V24.0625C6.125 24.3031 6.32187 24.5 6.5625 24.5H21.4375C21.6781 24.5 21.875 24.3031 21.875 24.0625V18.375C21.875 17.6477 21.2898 17.0625 20.5625 17.0625H19.6875V14.875C19.6875 14.6344 19.4906 14.4375 19.25 14.4375H17.5C17.2594 14.4375 17.0625 14.6344 17.0625 14.875V17.0625H15.3125V14.875C15.3125 14.6344 15.1156 14.4375 14.875 14.4375H13.125C12.8844 14.4375 12.6875 14.6344 12.6875 14.875V17.0625H10.9375V14.875C10.9375 14.6344 10.7406 14.4375 10.5 14.4375H8.75C8.50937 14.4375 8.3125 14.6344 8.3125 14.875V17.0625ZM21 23.625H7V20.5625C7.24609 20.5625 7.35 20.6609 7.56328 20.8742C8.09375 21.5305 9.05625 21.6289 9.7125 21.0984C9.79453 21.0328 9.87109 20.9563 9.93672 20.8742C10.15 20.6609 10.2539 20.5625 10.5 20.5625C10.7461 20.5625 10.85 20.6609 11.0633 20.8742C11.5938 21.5305 12.5563 21.6289 13.2125 21.0984C13.2945 21.0328 13.3711 20.9563 13.4367 20.8742C13.65 20.6609 13.7539 20.5625 14 20.5625C14.2461 20.5625 14.35 20.6609 14.5633 20.8742C15.0937 21.5305 16.0563 21.6289 16.7125 21.0984C16.7945 21.0328 16.8711 20.9563 16.9367 20.8742C17.15 20.6609 17.2539 20.5625 17.5 20.5625C17.7461 20.5625 17.85 20.6609 18.0633 20.8742C18.5937 21.5305 19.5563 21.6289 20.2125 21.0984C20.2945 21.0328 20.3711 20.9563 20.4367 20.8742C20.65 20.6609 20.7539 20.5625 21 20.5625V23.625ZM21 18.375V19.6875C20.5406 19.693 20.1086 19.9008 19.8133 20.2508C19.6 20.4641 19.4961 20.5625 19.25 20.5625C19.0039 20.5625 18.9 20.4641 18.6867 20.2508C18.1563 19.5945 17.1937 19.4961 16.5375 20.0266C16.4555 20.0922 16.3789 20.1687 16.3133 20.2508C16.1 20.4641 15.9961 20.5625 15.75 20.5625C15.5039 20.5625 15.4 20.4641 15.1867 20.2508C14.6563 19.5945 13.6937 19.4961 13.0375 20.0266C12.9555 20.0922 12.8789 20.1687 12.8133 20.2508C12.6 20.4641 12.4961 20.5625 12.25 20.5625C12.0039 20.5625 11.9 20.4641 11.6867 20.2508C11.1562 19.5945 10.1937 19.4961 9.5375 20.0266C9.45547 20.0922 9.37891 20.1687 9.31328 20.2508C9.1 20.4641 8.99609 20.5625 8.75 20.5625C8.50391 20.5625 8.4 20.4641 8.18672 20.2508C7.89141 19.9008 7.45937 19.693 7 19.6875V18.375C7 18.1344 7.19687 17.9375 7.4375 17.9375H20.5625C20.8031 17.9375 21 18.1344 21 18.375ZM17.9375 15.3125H18.8125V17.0625H17.9375V15.3125ZM13.5625 15.3125H14.4375V17.0625H13.5625V15.3125ZM10.0625 15.3125V17.0625H9.1875V15.3125H10.0625Z" fill="#173851"/>
<path d="M18.3754 14C19.1027 14 19.6879 13.4148 19.6879 12.6875C19.6879 12.1297 19.0207 11.1016 18.7363 10.6859C18.5996 10.4891 18.3262 10.4398 18.1293 10.5766C18.0855 10.6039 18.0527 10.6422 18.0199 10.6859C17.7301 11.1016 17.0684 12.1242 17.0684 12.6875C17.0684 13.2508 17.6535 14 18.3809 14H18.3754ZM18.3754 11.7469C18.5723 12.0367 18.7199 12.3539 18.8129 12.6875C18.8129 12.9281 18.616 13.125 18.3754 13.125C18.1348 13.125 17.9379 12.9281 17.9379 12.6875C18.0363 12.3539 18.1785 12.0367 18.3754 11.7469Z" fill="#173851"/>
<path d="M25.8125 3.0625H23.1875V2.1875C23.1875 1.46016 22.6023 0.875 21.875 0.875C21.1477 0.875 20.5625 1.46016 20.5625 2.1875V3.0625H17.9375V2.1875C17.9375 1.46016 17.3523 0.875 16.625 0.875C15.8977 0.875 15.3125 1.46016 15.3125 2.1875V3.0625H12.6875V2.1875C12.6875 1.46016 12.1023 0.875 11.375 0.875C10.6477 0.875 10.0625 1.46016 10.0625 2.1875V3.0625H7.4375V2.1875C7.4375 1.46016 6.85234 0.875 6.125 0.875C5.39766 0.875 4.8125 1.46016 4.8125 2.1875V3.0625H2.1875C1.46016 3.0625 0.875 3.64766 0.875 4.375V10.9375C0.875 11.1781 1.07187 11.375 1.3125 11.375C1.55313 11.375 1.75 11.1781 1.75 10.9375V8.75H26.25V22.3125C26.25 22.5531 26.4469 22.75 26.6875 22.75C26.9281 22.75 27.125 22.5531 27.125 22.3125V4.375C27.125 3.64766 26.5398 3.0625 25.8125 3.0625ZM21.4375 2.1875C21.4375 1.94687 21.6344 1.75 21.875 1.75C22.1156 1.75 22.3125 1.94687 22.3125 2.1875V4.8125C22.3125 5.05312 22.1156 5.25 21.875 5.25C21.6344 5.25 21.4375 5.05312 21.4375 4.8125V2.1875ZM16.1875 2.1875C16.1875 1.94687 16.3844 1.75 16.625 1.75C16.8656 1.75 17.0625 1.94687 17.0625 2.1875V4.8125C17.0625 5.05312 16.8656 5.25 16.625 5.25C16.3844 5.25 16.1875 5.05312 16.1875 4.8125V2.1875ZM10.9375 2.1875C10.9375 1.94687 11.1344 1.75 11.375 1.75C11.6156 1.75 11.8125 1.94687 11.8125 2.1875V4.8125C11.8125 5.05312 11.6156 5.25 11.375 5.25C11.1344 5.25 10.9375 5.05312 10.9375 4.8125V2.1875ZM5.6875 2.1875C5.6875 1.94687 5.88438 1.75 6.125 1.75C6.36562 1.75 6.5625 1.94687 6.5625 2.1875V4.8125C6.5625 5.05312 6.36562 5.25 6.125 5.25C5.88438 5.25 5.6875 5.05312 5.6875 4.8125V2.1875ZM1.75 7.875V4.375C1.75 4.13438 1.94687 3.9375 2.1875 3.9375H4.8125V4.8125C4.8125 5.53984 5.39766 6.125 6.125 6.125C6.85234 6.125 7.4375 5.53984 7.4375 4.8125V3.9375H10.0625V4.8125C10.0625 5.53984 10.6477 6.125 11.375 6.125C12.1023 6.125 12.6875 5.53984 12.6875 4.8125V3.9375H15.3125V4.8125C15.3125 5.53984 15.8977 6.125 16.625 6.125C17.3523 6.125 17.9375 5.53984 17.9375 4.8125V3.9375H20.5625V4.8125C20.5625 5.53984 21.1477 6.125 21.875 6.125C22.6023 6.125 23.1875 5.53984 23.1875 4.8125V3.9375H25.8125C26.0531 3.9375 26.25 4.13438 26.25 4.375V7.875H1.75Z" fill="#173851"/>
<path d="M26.6875 23.625C26.4469 23.625 26.25 23.8219 26.25 24.0625V25.8125C26.25 26.0531 26.0531 26.25 25.8125 26.25H2.1875C1.94687 26.25 1.75 26.0531 1.75 25.8125V12.6875C1.75 12.4469 1.55313 12.25 1.3125 12.25C1.07187 12.25 0.875 12.4469 0.875 12.6875V25.8125C0.875 26.5398 1.46016 27.125 2.1875 27.125H25.8125C26.5398 27.125 27.125 26.5398 27.125 25.8125V24.0625C27.125 23.8219 26.9281 23.625 26.6875 23.625Z" fill="#173851"/>
</g>
<defs>
<clipPath id="clip0_2009_4179">
<rect width="28" height="28" fill="white"/>
</clipPath>
</defs>
</svg>
