<svg width="28" height="28" viewBox="0 0 28 28" fill="none" xmlns="http://www.w3.org/2000/svg">
<g clip-path="url(#clip0_32_312)">
<path d="M24.5 2.36361H21V0.0302734H18.6667V2.36361H9.33333V0.0302734H7V2.36361H3.5C1.57033 2.36361 0 3.93394 0 5.86361V28.0303H28V5.86361C28 3.93394 26.4297 2.36361 24.5 2.36361ZM3.5 4.69694H24.5C25.1428 4.69694 25.6667 5.22077 25.6667 5.86361V9.36361H2.33333V5.86361C2.33333 5.22077 2.85717 4.69694 3.5 4.69694ZM2.33333 25.6969V11.6969H25.6667V25.6969H2.33333ZM19.6233 17.9164L16.8152 19.9966L17.885 23.2854L16.8548 23.9889L14.0105 22.0604L11.1417 24.0041L10.1873 23.2668L11.2023 19.9616L8.45017 17.9619L8.63917 16.9434H12.2582L13.2953 13.3256H14.6568L15.7582 16.9434H19.3585L19.6222 17.9176L19.6233 17.9164Z" fill="#555555"/>
</g>
<defs>
<clipPath id="clip0_32_312">
<rect width="28" height="28" fill="white"/>
</clipPath>
</defs>
</svg>
