<svg width="28" height="28" viewBox="0 0 28 28" fill="none" xmlns="http://www.w3.org/2000/svg">
<g clip-path="url(#clip0_3167_6087)">
<path d="M23.917 11.0833L14.0003 17.4999L4.08363 11.0833V1.1666C4.08196 1.08954 4.0959 1.01293 4.12463 0.941403C4.15335 0.869874 4.19626 0.8049 4.25076 0.750396C4.30527 0.695892 4.37024 0.652986 4.44177 0.624262C4.5133 0.595539 4.5899 0.581593 4.66696 0.583264H23.3336C23.4107 0.581593 23.4873 0.595539 23.5588 0.624262C23.6304 0.652986 23.6953 0.695892 23.7498 0.750396C23.8043 0.8049 23.8472 0.869874 23.876 0.941403C23.9047 1.01293 23.9186 1.08954 23.917 1.1666V11.0833Z" fill="#F1F2F2"/>
<path d="M4.0835 8.11417V11.0833L0.583496 8.75L4.0835 5.25V8.11417Z" fill="#F6B445"/>
<path d="M27.4165 8.75L23.9165 11.0833V8.1375V5.25L27.4165 8.75Z" fill="#F6B445"/>
<path d="M23.9166 11.0308L27.4166 8.75V25.0833C27.4155 25.702 27.1702 26.2953 26.7341 26.7342L22.7499 22.75L16.3333 16.3333L16.1699 16.0825L23.9166 11.0308Z" fill="#FED049"/>
<path d="M22.7498 22.75L26.734 26.7342C26.2951 27.1703 25.7018 27.4156 25.0831 27.4167H2.91646C2.29775 27.4156 1.70448 27.1703 1.26562 26.7342L5.24979 22.75L11.6665 16.3334L11.8298 16.0825L13.9998 17.5L16.1698 16.0825L16.3331 16.3334L22.7498 22.75Z" fill="#F6B445"/>
<path d="M11.8302 16.0825L11.6668 16.3333L5.25016 22.75L1.266 26.7342C0.829873 26.2953 0.584601 25.702 0.583496 25.0833V8.75L11.8302 16.0825Z" fill="#FED049"/>
<path d="M20.4165 14.5834C24.2825 14.5834 27.4165 11.4494 27.4165 7.58337C27.4165 3.71738 24.2825 0.583374 20.4165 0.583374C16.5505 0.583374 13.4165 3.71738 13.4165 7.58337C13.4165 11.4494 16.5505 14.5834 20.4165 14.5834Z" fill="#35DC86"/>
<path d="M27.4167 13.9998C27.262 13.9998 27.1136 14.0612 27.0042 14.1706C26.8948 14.28 26.8333 14.4284 26.8333 14.5831V25.0831C26.8333 25.5472 26.649 25.9923 26.3208 26.3205C25.9926 26.6487 25.5475 26.8331 25.0833 26.8331H2.91667C2.45254 26.8331 2.00742 26.6487 1.67923 26.3205C1.35104 25.9923 1.16667 25.5472 1.16667 25.0831V8.99127L3.5 6.65793V8.16644C3.5 8.32114 3.56146 8.46952 3.67085 8.57891C3.78025 8.68831 3.92862 8.74977 4.08333 8.74977C4.23804 8.74977 4.38642 8.68831 4.49581 8.57891C4.60521 8.46952 4.66667 8.32114 4.66667 8.16644V1.16643H14C14.1547 1.16643 14.3031 1.10498 14.4125 0.99558C14.5219 0.886184 14.5833 0.73781 14.5833 0.583101C14.5833 0.428391 14.5219 0.280018 14.4125 0.170622C14.3031 0.0612256 14.1547 -0.000232577 14 -0.000232577H4.66667C4.51256 -0.00349301 4.35939 0.0244558 4.21637 0.081932C4.07335 0.139408 3.94344 0.225224 3.83445 0.334215C3.72546 0.443207 3.63964 0.573121 3.58216 0.716142C3.52469 0.859162 3.49674 1.01233 3.5 1.16643V5.00827L0.170917 8.33735C0.116874 8.39166 0.0740592 8.45608 0.0449167 8.52693C0.0156214 8.59759 0.000365304 8.67328 0 8.74977L0 25.0831C0.00092625 25.8564 0.308514 26.5977 0.855295 27.1445C1.40208 27.6913 2.1434 27.9988 2.91667 27.9998H25.0833C25.8566 27.9988 26.5979 27.6913 27.1447 27.1445C27.6915 26.5977 27.9991 25.8564 28 25.0831V14.5831C28 14.4284 27.9385 14.28 27.8291 14.1706C27.7197 14.0612 27.5714 13.9998 27.4167 13.9998Z" fill="#474C54"/>
<path d="M4.83763 23.1624C4.94702 23.2718 5.09537 23.3332 5.25005 23.3332C5.40472 23.3332 5.55307 23.2718 5.66246 23.1624L11.9584 16.8659L13.6804 17.9888C13.81 18.0733 13.9679 18.1028 14.1193 18.0709C14.2707 18.0389 14.4032 17.9481 14.4877 17.8185C14.5722 17.6888 14.6017 17.5309 14.5697 17.3795C14.5378 17.2281 14.447 17.0956 14.3174 17.0111L4.40071 10.5443C4.27136 10.4689 4.11794 10.446 3.97222 10.4806C3.8265 10.5151 3.69965 10.6044 3.61793 10.7299C3.53622 10.8554 3.5059 11.0075 3.53325 11.1547C3.56061 11.302 3.64354 11.433 3.76488 11.5208L10.9609 16.2166L4.83588 22.3417C4.728 22.4511 4.66766 22.5987 4.66799 22.7524C4.66832 22.9061 4.72928 23.0534 4.83763 23.1624Z" fill="#474C54"/>
<path d="M20.4168 15.1667C21.9167 15.1667 23.3828 14.7219 24.6299 13.8886C25.877 13.0554 26.849 11.871 27.4229 10.4854C27.9969 9.09968 28.1471 7.57492 27.8545 6.1039C27.5618 4.63288 26.8396 3.28166 25.7791 2.22111C24.7185 1.16056 23.3673 0.43832 21.8963 0.145715C20.4252 -0.14689 18.9005 0.00328574 17.5148 0.57725C16.1291 1.15121 14.9448 2.12319 14.1115 3.37026C13.2783 4.61734 12.8335 6.0835 12.8335 7.58334C12.8358 9.59385 13.6355 11.5214 15.0572 12.943C16.4788 14.3647 18.4063 15.1644 20.4168 15.1667ZM20.4168 1.16667C21.6859 1.16667 22.9265 1.543 23.9817 2.24807C25.037 2.95315 25.8594 3.95529 26.3451 5.12779C26.8307 6.30028 26.9578 7.59046 26.7102 8.83517C26.4626 10.0799 25.8515 11.2232 24.9541 12.1206C24.0567 13.018 22.9134 13.6291 21.6687 13.8767C20.4239 14.1243 19.1338 13.9972 17.9613 13.5116C16.7888 13.0259 15.7866 12.2035 15.0816 11.1482C14.3765 10.093 14.0002 8.85243 14.0002 7.58334C14.0022 5.88215 14.6789 4.25121 15.8818 3.04829C17.0847 1.84536 18.7156 1.16868 20.4168 1.16667Z" fill="#474C54"/>
<path d="M18.2541 10.9124C18.3635 11.0218 18.5118 11.0832 18.6665 11.0832C18.8212 11.0832 18.9695 11.0218 19.0789 10.9124L24.3289 5.66241C24.4352 5.55239 24.494 5.40504 24.4926 5.25209C24.4913 5.09914 24.43 4.95284 24.3218 4.84468C24.2137 4.73653 24.0673 4.67518 23.9144 4.67385C23.7615 4.67252 23.6141 4.73132 23.5041 4.83758L18.6665 9.67516L17.3289 8.33758C17.2189 8.23132 17.0715 8.17252 16.9186 8.17385C16.7656 8.17518 16.6193 8.23653 16.5112 8.34468C16.403 8.45284 16.3417 8.59914 16.3404 8.75209C16.339 8.90504 16.3978 9.05239 16.5041 9.16241L18.2541 10.9124Z" fill="#474C54"/>
</g>
<defs>
<clipPath id="clip0_3167_6087">
<rect width="28" height="28" fill="white"/>
</clipPath>
</defs>
</svg>
