<svg width="27" height="27" viewBox="0 0 27 27" fill="none" xmlns="http://www.w3.org/2000/svg">
<circle cx="13.5" cy="13.5" r="13.5" fill="#C11700"/>
<path d="M19.7953 9.49438L19.9544 9.33528L19.7953 9.17618L18.6416 8.02254L18.4825 7.86344L18.3235 8.02254L13.9089 12.4371L9.49438 8.02254L9.33528 7.86344L9.17618 8.02254L8.02254 9.17618L7.86344 9.33528L8.02254 9.49438L12.4371 13.9089L8.02254 18.3235L7.86344 18.4825L8.02254 18.6416L9.17618 19.7953L9.33528 19.9544L9.49438 19.7953L13.9089 15.3807L18.3235 19.7953L18.4825 19.9544L18.6416 19.7953L19.7953 18.6416L19.9544 18.4825L19.7953 18.3235L15.3807 13.9089L19.7953 9.49438Z" fill="white" stroke="white" stroke-width="0.45"/>
</svg>
