<svg width="30" height="34" viewBox="0 0 30 34" fill="none" xmlns="http://www.w3.org/2000/svg">
<path d="M15.5 11C17.43 11 19 12.57 19 14.5C19 16.43 17.43 18 15.5 18C13.57 18 12 16.43 12 14.5C12 12.57 13.57 11 15.5 11ZM15.5 9C12.46 9 10 11.46 10 14.5C10 17.54 12.46 20 15.5 20C18.54 20 21 17.54 21 14.5C21 13.34 20.64 12.27 20.03 11.38L24 7.42V10H26V4H20V6H22.58L18.61 9.97C17.73 9.36 16.66 9 15.5 9Z" fill="#009AC1"/>
<path d="M17.5 19C17.5 15.96 15.04 13.5 12 13.5C8.96 13.5 6.5 15.96 6.5 19C6.5 21.7 8.44 23.93 11 24.4V26.5H9V28.5H11V30.5H13V28.5H15V26.5H13V24.4C15.56 23.93 17.5 21.7 17.5 19ZM8.5 19C8.5 17.07 10.07 15.5 12 15.5C13.93 15.5 15.5 17.07 15.5 19C15.5 20.93 13.93 22.5 12 22.5C10.07 22.5 8.5 20.93 8.5 19Z" fill="#009AC1"/>
</svg>
