<svg width="19" height="19" viewBox="0 0 19 19" fill="none" xmlns="http://www.w3.org/2000/svg">
<path d="M0 15.8333V13.6365C0 13.1879 0.112153 12.7722 0.336458 12.3896C0.560764 12.007 0.870833 11.7167 1.26667 11.5188C1.45139 11.4264 1.62951 11.3406 1.80104 11.2615C1.98576 11.1823 2.17708 11.1097 2.375 11.0438V15.8333H0ZM3.16667 10.2917C2.50694 10.2917 1.94618 10.0608 1.48438 9.59896C1.02257 9.13716 0.791667 8.57639 0.791667 7.91667C0.791667 7.25695 1.02257 6.69619 1.48438 6.23438C1.94618 5.77257 2.50694 5.54167 3.16667 5.54167C3.82639 5.54167 4.38715 5.77257 4.84896 6.23438C5.31076 6.69619 5.54167 7.25695 5.54167 7.91667C5.54167 8.57639 5.31076 9.13716 4.84896 9.59896C4.38715 10.0608 3.82639 10.2917 3.16667 10.2917ZM3.16667 8.70834C3.39097 8.70834 3.57569 8.63577 3.72083 8.49063C3.87917 8.3323 3.95833 8.14098 3.95833 7.91667C3.95833 7.69237 3.87917 7.50764 3.72083 7.36251C3.57569 7.20417 3.39097 7.125 3.16667 7.125C2.94236 7.125 2.75104 7.20417 2.59271 7.36251C2.44757 7.50764 2.375 7.69237 2.375 7.91667C2.375 8.14098 2.44757 8.3323 2.59271 8.49063C2.75104 8.63577 2.94236 8.70834 3.16667 8.70834ZM3.16667 15.8333V13.6167C3.16667 13.1681 3.27882 12.759 3.50313 12.3896C3.74063 12.007 4.05069 11.7167 4.43333 11.5188C5.25139 11.1097 6.08264 10.8063 6.92708 10.6083C7.77153 10.3972 8.62917 10.2917 9.5 10.2917C10.3708 10.2917 11.2285 10.3972 12.0729 10.6083C12.9174 10.8063 13.7486 11.1097 14.5667 11.5188C14.9493 11.7167 15.2528 12.007 15.4771 12.3896C15.7146 12.759 15.8333 13.1681 15.8333 13.6167V15.8333H3.16667ZM4.75 14.25H14.25V13.6167C14.25 13.4715 14.2104 13.3396 14.1313 13.2208C14.0653 13.1021 13.9729 13.0097 13.8542 12.9438C13.1417 12.5875 12.4226 12.3236 11.6969 12.1521C10.9712 11.9674 10.2389 11.875 9.5 11.875C8.76111 11.875 8.02882 11.9674 7.30313 12.1521C6.57743 12.3236 5.85833 12.5875 5.14583 12.9438C5.02708 13.0097 4.92812 13.1021 4.84896 13.2208C4.78299 13.3396 4.75 13.4715 4.75 13.6167V14.25ZM9.5 9.50001C8.62917 9.50001 7.88368 9.18994 7.26354 8.5698C6.6434 7.94966 6.33333 7.20417 6.33333 6.33334C6.33333 5.46251 6.6434 4.71702 7.26354 4.09688C7.88368 3.47674 8.62917 3.16667 9.5 3.16667C10.3708 3.16667 11.1163 3.47674 11.7365 4.09688C12.3566 4.71702 12.6667 5.46251 12.6667 6.33334C12.6667 7.20417 12.3566 7.94966 11.7365 8.5698C11.1163 9.18994 10.3708 9.50001 9.5 9.50001ZM9.5 7.91667C9.93542 7.91667 10.3049 7.76494 10.6083 7.46146C10.925 7.1448 11.0833 6.76876 11.0833 6.33334C11.0833 5.89792 10.925 5.52848 10.6083 5.22501C10.3049 4.90834 9.93542 4.75 9.5 4.75C9.06458 4.75 8.68854 4.90834 8.37188 5.22501C8.0684 5.52848 7.91667 5.89792 7.91667 6.33334C7.91667 6.76876 8.0684 7.1448 8.37188 7.46146C8.68854 7.76494 9.06458 7.91667 9.5 7.91667ZM15.8333 10.2917C15.1736 10.2917 14.6128 10.0608 14.151 9.59896C13.6892 9.13716 13.4583 8.57639 13.4583 7.91667C13.4583 7.25695 13.6892 6.69619 14.151 6.23438C14.6128 5.77257 15.1736 5.54167 15.8333 5.54167C16.4931 5.54167 17.0538 5.77257 17.5156 6.23438C17.9774 6.69619 18.2083 7.25695 18.2083 7.91667C18.2083 8.57639 17.9774 9.13716 17.5156 9.59896C17.0538 10.0608 16.4931 10.2917 15.8333 10.2917ZM15.8333 8.70834C16.0576 8.70834 16.2424 8.63577 16.3875 8.49063C16.5458 8.3323 16.625 8.14098 16.625 7.91667C16.625 7.69237 16.5458 7.50764 16.3875 7.36251C16.2424 7.20417 16.0576 7.125 15.8333 7.125C15.609 7.125 15.4177 7.20417 15.2594 7.36251C15.1142 7.50764 15.0417 7.69237 15.0417 7.91667C15.0417 8.14098 15.1142 8.3323 15.2594 8.49063C15.4177 8.63577 15.609 8.70834 15.8333 8.70834ZM16.625 15.8333V11.0438C16.8229 11.1097 17.0076 11.1823 17.1792 11.2615C17.3639 11.3406 17.5486 11.4264 17.7333 11.5188C18.1292 11.7167 18.4392 12.007 18.6635 12.3896C18.8878 12.7722 19 13.1879 19 13.6365V15.8333H16.625Z" fill="#555555" style="mix-blend-mode:luminosity"/>
</svg>
