<svg width="38" height="38" viewBox="0 0 38 38" fill="none" xmlns="http://www.w3.org/2000/svg">
<path d="M31.6667 19V34.8333H6.33332V19M19 34.8333V11.0833M19 11.0833H11.875C10.8252 11.0833 9.81836 10.6663 9.07603 9.92396C8.33369 9.18163 7.91666 8.17482 7.91666 7.125C7.91666 6.07518 8.33369 5.06837 9.07603 4.32604C9.81836 3.5837 10.8252 3.16667 11.875 3.16667C17.4167 3.16667 19 11.0833 19 11.0833ZM19 11.0833H26.125C27.1748 11.0833 28.1816 10.6663 28.924 9.92396C29.6663 9.18163 30.0833 8.17482 30.0833 7.125C30.0833 6.07518 29.6663 5.06837 28.924 4.32604C28.1816 3.5837 27.1748 3.16667 26.125 3.16667C20.5833 3.16667 19 11.0833 19 11.0833ZM3.16666 11.0833H34.8333V19H3.16666V11.0833Z" stroke="#009AC1" stroke-width="2" stroke-linecap="round" stroke-linejoin="round"/>
</svg>
