<svg width="40" height="37" viewBox="0 0 40 37" fill="none" xmlns="http://www.w3.org/2000/svg">
<g clip-path="url(#clip0_200_695)">
<mask id="path-1-outside-1_200_695" maskUnits="userSpaceOnUse" x="-0.999207" y="-0.999847" width="42" height="39" fill="black">
<rect fill="white" x="-0.999207" y="-0.999847" width="42" height="39"/>
<path d="M29.7397 30.3303C29.7397 32.0457 29.7397 33.6164 29.7397 35.1871C29.7397 35.4491 29.8176 35.7425 29.7213 35.9664C29.565 36.3304 29.295 36.6492 29.0734 36.9868C28.8766 36.6634 28.5235 36.3466 28.5093 36.0162C28.444 34.479 28.4725 32.9382 28.4683 31.399C28.4672 31.0791 28.4683 30.7588 28.4683 30.3786H13.2332C13.2332 32.1198 13.2332 33.8134 13.2332 35.507C13.2332 35.7364 13.319 36.005 13.2237 36.1862C13.0643 36.4878 12.7906 36.7325 12.5649 37.001C12.3754 36.7365 12.0323 36.4776 12.0218 36.2065C11.9655 34.7343 11.9907 33.259 11.9886 31.7853C11.9881 31.3345 11.9886 30.8837 11.9886 30.4334C10.7988 30.1496 9.90782 30.34 9.06003 31.1599C7.43022 32.7356 5.66938 34.1845 4.00905 35.7324C2.25294 37.3696 1.20885 36.4639 0.252649 35.081C-0.19414 34.4348 -0.0178454 33.7159 0.555771 33.1966C3.05705 30.9334 5.5757 28.6875 8.11803 26.4675C8.35274 26.2624 8.7969 26.2096 9.14475 26.2066C11.5897 26.1837 14.0352 26.2096 16.4797 26.1695C16.8002 26.1644 17.3143 25.9401 17.4038 25.7004C18.5789 22.5666 19.6935 19.4115 20.8113 16.296C19.9419 16.101 19.0767 16.0371 18.3421 15.7046C17.6364 15.3847 17.0659 14.7872 16.2892 14.2009C14.8078 14.7705 13.3353 14.5745 12.3323 12.8505C12.1112 12.9023 11.8918 12.9495 11.6745 13.0053C10.5177 13.3008 9.49366 13.0211 8.6927 12.2052C7.90122 11.3986 7.99173 10.4162 8.34853 9.43746C10.5535 3.37851 16.998 -0.581266 23.5925 0.0700659C33.1919 1.01736 39.2896 10.1005 36.2531 18.9287C35.6032 20.8183 33.0609 21.3559 31.6095 19.9034C31.3753 19.6694 31.1848 19.3953 30.9406 19.0993C29.224 19.6989 27.8346 19.2993 26.8684 17.6428C25.0608 18.2556 23.4973 17.7596 22.0837 16.4579C20.907 19.7258 19.7645 22.8987 18.6221 26.0715C18.6941 26.167 18.7662 26.2624 18.8378 26.3579C19.3688 26.1183 20.0745 26.0121 20.4018 25.6157C22.0953 23.5652 24.2151 22.8657 26.8953 23.1449C28.8093 23.3444 30.7627 23.2154 32.6972 23.1758C33.0888 23.1677 33.5455 22.9824 33.8497 22.7372C34.7349 22.0245 35.5443 21.2254 36.4089 20.4878C37.3972 19.644 38.216 19.7379 39.2138 20.7644C40.2142 21.794 40.2732 22.6098 39.3149 23.4809C36.9425 25.6375 34.5523 27.7763 32.1373 29.8882C31.8479 30.1415 31.3737 30.2384 30.9659 30.3146C30.5896 30.3847 30.1881 30.3293 29.7397 30.3293V30.3303ZM20.3345 29.1246C23.6604 29.1246 26.9869 29.1454 30.3128 29.1018C30.799 29.0952 31.3884 28.8977 31.7463 28.5901C33.925 26.7168 36.0431 24.779 38.1987 22.8804C38.6634 22.4712 38.8949 22.1595 38.3608 21.599C37.8156 21.0269 37.4572 21.1528 36.9457 21.6204C35.098 23.3094 33.1966 24.9435 31.36 26.6432C30.7548 27.2031 30.1502 27.4336 29.2945 27.4285C22.7452 27.3884 16.1955 27.3971 9.64627 27.4229C9.22001 27.4245 8.69481 27.589 8.38432 27.858C6.16405 29.7841 4.00063 31.7716 1.7872 33.7053C1.26516 34.1617 1.22517 34.4663 1.70406 34.9831C2.22873 35.5491 2.55922 35.3643 3.02811 34.9379C4.9784 33.1626 6.93817 31.3964 8.94109 29.6775C9.29947 29.3703 9.87677 29.1551 10.3562 29.1485C13.6816 29.1033 17.008 29.1251 20.3345 29.1246ZM25.7749 2.65712C25.7017 2.59163 25.6291 2.52614 25.556 2.46014C24.784 2.94851 23.9609 3.37546 23.2494 3.93541C20.5013 6.09907 18.9673 9.0425 17.7232 12.1545C17.2496 13.3394 17.8137 14.3075 19.2036 14.7877C20.5213 15.2431 21.4244 14.8776 21.8617 13.6627C22.7737 11.1295 23.6604 8.58814 24.5603 6.05084C24.9618 4.91876 25.3702 3.78819 25.7749 2.65712ZM27.0226 2.83683C25.9159 5.9549 24.8866 8.8567 23.8567 11.758C23.5499 12.623 23.2131 13.479 22.9421 14.3542C22.6432 15.3187 23.2978 16.1858 24.5556 16.5706C25.7081 16.923 26.6932 16.6021 26.9526 15.6172C27.4684 13.6602 27.9899 11.6895 28.2672 9.69282C28.5856 7.3997 28.2309 5.14466 27.0226 2.83683ZM20.6823 1.5164C20.6008 1.4306 20.5829 1.39456 20.5645 1.39456C16.1771 1.38593 10.2962 6.01226 9.40104 10.1731C9.25527 10.8508 9.38262 11.3976 10.1083 11.7169C10.8409 12.0397 11.5113 12.0144 12.0323 11.3879C12.3028 11.0625 12.478 10.6589 12.6701 10.2787C14.5046 6.65192 16.616 3.2587 20.6823 1.5164ZM31.6442 5.04618C33.2693 7.82919 33.3161 10.8026 32.8962 13.8211C32.7162 15.1136 32.3957 16.3874 32.1573 17.6728C31.9878 18.585 32.4241 19.2719 33.2719 19.4806C34.0702 19.677 34.7554 19.2876 35.0812 18.4525C36.8094 14.0206 35.3595 8.2211 31.6442 5.04618ZM29.0382 4.02121C29.6939 6.50926 29.807 9.01204 29.3108 11.5148C28.9998 13.084 28.5209 14.6212 28.1278 16.1757C27.8789 17.161 28.2735 17.9002 29.1382 18.1094C30.0628 18.3327 30.8548 17.9368 30.999 16.9422C31.34 14.5887 31.7242 12.2205 31.7673 9.85273C31.8084 7.59719 30.7569 5.63151 29.0382 4.02121ZM23.3657 2.08396C22.9089 2.18397 22.4395 2.24845 21.9964 2.38907C17.3233 3.87398 15.3056 7.67283 13.48 11.5991C13.1716 12.2621 13.6205 12.8941 14.3636 13.1454C15.1156 13.3993 15.7924 13.2429 16.206 12.5352C16.4202 12.1687 16.5355 11.7483 16.6991 11.3539C18.1805 7.78807 20.0745 4.5045 23.3657 2.08396ZM21.8359 26.1812C24.1746 26.1812 26.4122 26.0721 28.6319 26.2188C30.1796 26.3208 30.8906 25.4253 31.8868 24.3993C29.6818 24.3993 27.6778 24.5191 25.6975 24.3622C24.0251 24.2297 22.8205 24.7318 21.8359 26.1812Z"/>
</mask>
<path d="M29.7397 30.3303C29.7397 32.0457 29.7397 33.6164 29.7397 35.1871C29.7397 35.4491 29.8176 35.7425 29.7213 35.9664C29.565 36.3304 29.295 36.6492 29.0734 36.9868C28.8766 36.6634 28.5235 36.3466 28.5093 36.0162C28.444 34.479 28.4725 32.9382 28.4683 31.399C28.4672 31.0791 28.4683 30.7588 28.4683 30.3786H13.2332C13.2332 32.1198 13.2332 33.8134 13.2332 35.507C13.2332 35.7364 13.319 36.005 13.2237 36.1862C13.0643 36.4878 12.7906 36.7325 12.5649 37.001C12.3754 36.7365 12.0323 36.4776 12.0218 36.2065C11.9655 34.7343 11.9907 33.259 11.9886 31.7853C11.9881 31.3345 11.9886 30.8837 11.9886 30.4334C10.7988 30.1496 9.90782 30.34 9.06003 31.1599C7.43022 32.7356 5.66938 34.1845 4.00905 35.7324C2.25294 37.3696 1.20885 36.4639 0.252649 35.081C-0.19414 34.4348 -0.0178454 33.7159 0.555771 33.1966C3.05705 30.9334 5.5757 28.6875 8.11803 26.4675C8.35274 26.2624 8.7969 26.2096 9.14475 26.2066C11.5897 26.1837 14.0352 26.2096 16.4797 26.1695C16.8002 26.1644 17.3143 25.9401 17.4038 25.7004C18.5789 22.5666 19.6935 19.4115 20.8113 16.296C19.9419 16.101 19.0767 16.0371 18.3421 15.7046C17.6364 15.3847 17.0659 14.7872 16.2892 14.2009C14.8078 14.7705 13.3353 14.5745 12.3323 12.8505C12.1112 12.9023 11.8918 12.9495 11.6745 13.0053C10.5177 13.3008 9.49366 13.0211 8.6927 12.2052C7.90122 11.3986 7.99173 10.4162 8.34853 9.43746C10.5535 3.37851 16.998 -0.581266 23.5925 0.0700659C33.1919 1.01736 39.2896 10.1005 36.2531 18.9287C35.6032 20.8183 33.0609 21.3559 31.6095 19.9034C31.3753 19.6694 31.1848 19.3953 30.9406 19.0993C29.224 19.6989 27.8346 19.2993 26.8684 17.6428C25.0608 18.2556 23.4973 17.7596 22.0837 16.4579C20.907 19.7258 19.7645 22.8987 18.6221 26.0715C18.6941 26.167 18.7662 26.2624 18.8378 26.3579C19.3688 26.1183 20.0745 26.0121 20.4018 25.6157C22.0953 23.5652 24.2151 22.8657 26.8953 23.1449C28.8093 23.3444 30.7627 23.2154 32.6972 23.1758C33.0888 23.1677 33.5455 22.9824 33.8497 22.7372C34.7349 22.0245 35.5443 21.2254 36.4089 20.4878C37.3972 19.644 38.216 19.7379 39.2138 20.7644C40.2142 21.794 40.2732 22.6098 39.3149 23.4809C36.9425 25.6375 34.5523 27.7763 32.1373 29.8882C31.8479 30.1415 31.3737 30.2384 30.9659 30.3146C30.5896 30.3847 30.1881 30.3293 29.7397 30.3293V30.3303ZM20.3345 29.1246C23.6604 29.1246 26.9869 29.1454 30.3128 29.1018C30.799 29.0952 31.3884 28.8977 31.7463 28.5901C33.925 26.7168 36.0431 24.779 38.1987 22.8804C38.6634 22.4712 38.8949 22.1595 38.3608 21.599C37.8156 21.0269 37.4572 21.1528 36.9457 21.6204C35.098 23.3094 33.1966 24.9435 31.36 26.6432C30.7548 27.2031 30.1502 27.4336 29.2945 27.4285C22.7452 27.3884 16.1955 27.3971 9.64627 27.4229C9.22001 27.4245 8.69481 27.589 8.38432 27.858C6.16405 29.7841 4.00063 31.7716 1.7872 33.7053C1.26516 34.1617 1.22517 34.4663 1.70406 34.9831C2.22873 35.5491 2.55922 35.3643 3.02811 34.9379C4.9784 33.1626 6.93817 31.3964 8.94109 29.6775C9.29947 29.3703 9.87677 29.1551 10.3562 29.1485C13.6816 29.1033 17.008 29.1251 20.3345 29.1246ZM25.7749 2.65712C25.7017 2.59163 25.6291 2.52614 25.556 2.46014C24.784 2.94851 23.9609 3.37546 23.2494 3.93541C20.5013 6.09907 18.9673 9.0425 17.7232 12.1545C17.2496 13.3394 17.8137 14.3075 19.2036 14.7877C20.5213 15.2431 21.4244 14.8776 21.8617 13.6627C22.7737 11.1295 23.6604 8.58814 24.5603 6.05084C24.9618 4.91876 25.3702 3.78819 25.7749 2.65712ZM27.0226 2.83683C25.9159 5.9549 24.8866 8.8567 23.8567 11.758C23.5499 12.623 23.2131 13.479 22.9421 14.3542C22.6432 15.3187 23.2978 16.1858 24.5556 16.5706C25.7081 16.923 26.6932 16.6021 26.9526 15.6172C27.4684 13.6602 27.9899 11.6895 28.2672 9.69282C28.5856 7.3997 28.2309 5.14466 27.0226 2.83683ZM20.6823 1.5164C20.6008 1.4306 20.5829 1.39456 20.5645 1.39456C16.1771 1.38593 10.2962 6.01226 9.40104 10.1731C9.25527 10.8508 9.38262 11.3976 10.1083 11.7169C10.8409 12.0397 11.5113 12.0144 12.0323 11.3879C12.3028 11.0625 12.478 10.6589 12.6701 10.2787C14.5046 6.65192 16.616 3.2587 20.6823 1.5164ZM31.6442 5.04618C33.2693 7.82919 33.3161 10.8026 32.8962 13.8211C32.7162 15.1136 32.3957 16.3874 32.1573 17.6728C31.9878 18.585 32.4241 19.2719 33.2719 19.4806C34.0702 19.677 34.7554 19.2876 35.0812 18.4525C36.8094 14.0206 35.3595 8.2211 31.6442 5.04618ZM29.0382 4.02121C29.6939 6.50926 29.807 9.01204 29.3108 11.5148C28.9998 13.084 28.5209 14.6212 28.1278 16.1757C27.8789 17.161 28.2735 17.9002 29.1382 18.1094C30.0628 18.3327 30.8548 17.9368 30.999 16.9422C31.34 14.5887 31.7242 12.2205 31.7673 9.85273C31.8084 7.59719 30.7569 5.63151 29.0382 4.02121ZM23.3657 2.08396C22.9089 2.18397 22.4395 2.24845 21.9964 2.38907C17.3233 3.87398 15.3056 7.67283 13.48 11.5991C13.1716 12.2621 13.6205 12.8941 14.3636 13.1454C15.1156 13.3993 15.7924 13.2429 16.206 12.5352C16.4202 12.1687 16.5355 11.7483 16.6991 11.3539C18.1805 7.78807 20.0745 4.5045 23.3657 2.08396ZM21.8359 26.1812C24.1746 26.1812 26.4122 26.0721 28.6319 26.2188C30.1796 26.3208 30.8906 25.4253 31.8868 24.3993C29.6818 24.3993 27.6778 24.5191 25.6975 24.3622C24.0251 24.2297 22.8205 24.7318 21.8359 26.1812Z" fill="#009AC1"/>
<path d="M29.7397 30.3303C29.7397 32.0457 29.7397 33.6164 29.7397 35.1871C29.7397 35.4491 29.8176 35.7425 29.7213 35.9664C29.565 36.3304 29.295 36.6492 29.0734 36.9868C28.8766 36.6634 28.5235 36.3466 28.5093 36.0162C28.444 34.479 28.4725 32.9382 28.4683 31.399C28.4672 31.0791 28.4683 30.7588 28.4683 30.3786H13.2332C13.2332 32.1198 13.2332 33.8134 13.2332 35.507C13.2332 35.7364 13.319 36.005 13.2237 36.1862C13.0643 36.4878 12.7906 36.7325 12.5649 37.001C12.3754 36.7365 12.0323 36.4776 12.0218 36.2065C11.9655 34.7343 11.9907 33.259 11.9886 31.7853C11.9881 31.3345 11.9886 30.8837 11.9886 30.4334C10.7988 30.1496 9.90782 30.34 9.06003 31.1599C7.43022 32.7356 5.66938 34.1845 4.00905 35.7324C2.25294 37.3696 1.20885 36.4639 0.252649 35.081C-0.19414 34.4348 -0.0178454 33.7159 0.555771 33.1966C3.05705 30.9334 5.5757 28.6875 8.11803 26.4675C8.35274 26.2624 8.7969 26.2096 9.14475 26.2066C11.5897 26.1837 14.0352 26.2096 16.4797 26.1695C16.8002 26.1644 17.3143 25.9401 17.4038 25.7004C18.5789 22.5666 19.6935 19.4115 20.8113 16.296C19.9419 16.101 19.0767 16.0371 18.3421 15.7046C17.6364 15.3847 17.0659 14.7872 16.2892 14.2009C14.8078 14.7705 13.3353 14.5745 12.3323 12.8505C12.1112 12.9023 11.8918 12.9495 11.6745 13.0053C10.5177 13.3008 9.49366 13.0211 8.6927 12.2052C7.90122 11.3986 7.99173 10.4162 8.34853 9.43746C10.5535 3.37851 16.998 -0.581266 23.5925 0.0700659C33.1919 1.01736 39.2896 10.1005 36.2531 18.9287C35.6032 20.8183 33.0609 21.3559 31.6095 19.9034C31.3753 19.6694 31.1848 19.3953 30.9406 19.0993C29.224 19.6989 27.8346 19.2993 26.8684 17.6428C25.0608 18.2556 23.4973 17.7596 22.0837 16.4579C20.907 19.7258 19.7645 22.8987 18.6221 26.0715C18.6941 26.167 18.7662 26.2624 18.8378 26.3579C19.3688 26.1183 20.0745 26.0121 20.4018 25.6157C22.0953 23.5652 24.2151 22.8657 26.8953 23.1449C28.8093 23.3444 30.7627 23.2154 32.6972 23.1758C33.0888 23.1677 33.5455 22.9824 33.8497 22.7372C34.7349 22.0245 35.5443 21.2254 36.4089 20.4878C37.3972 19.644 38.216 19.7379 39.2138 20.7644C40.2142 21.794 40.2732 22.6098 39.3149 23.4809C36.9425 25.6375 34.5523 27.7763 32.1373 29.8882C31.8479 30.1415 31.3737 30.2384 30.9659 30.3146C30.5896 30.3847 30.1881 30.3293 29.7397 30.3293V30.3303ZM20.3345 29.1246C23.6604 29.1246 26.9869 29.1454 30.3128 29.1018C30.799 29.0952 31.3884 28.8977 31.7463 28.5901C33.925 26.7168 36.0431 24.779 38.1987 22.8804C38.6634 22.4712 38.8949 22.1595 38.3608 21.599C37.8156 21.0269 37.4572 21.1528 36.9457 21.6204C35.098 23.3094 33.1966 24.9435 31.36 26.6432C30.7548 27.2031 30.1502 27.4336 29.2945 27.4285C22.7452 27.3884 16.1955 27.3971 9.64627 27.4229C9.22001 27.4245 8.69481 27.589 8.38432 27.858C6.16405 29.7841 4.00063 31.7716 1.7872 33.7053C1.26516 34.1617 1.22517 34.4663 1.70406 34.9831C2.22873 35.5491 2.55922 35.3643 3.02811 34.9379C4.9784 33.1626 6.93817 31.3964 8.94109 29.6775C9.29947 29.3703 9.87677 29.1551 10.3562 29.1485C13.6816 29.1033 17.008 29.1251 20.3345 29.1246ZM25.7749 2.65712C25.7017 2.59163 25.6291 2.52614 25.556 2.46014C24.784 2.94851 23.9609 3.37546 23.2494 3.93541C20.5013 6.09907 18.9673 9.0425 17.7232 12.1545C17.2496 13.3394 17.8137 14.3075 19.2036 14.7877C20.5213 15.2431 21.4244 14.8776 21.8617 13.6627C22.7737 11.1295 23.6604 8.58814 24.5603 6.05084C24.9618 4.91876 25.3702 3.78819 25.7749 2.65712ZM27.0226 2.83683C25.9159 5.9549 24.8866 8.8567 23.8567 11.758C23.5499 12.623 23.2131 13.479 22.9421 14.3542C22.6432 15.3187 23.2978 16.1858 24.5556 16.5706C25.7081 16.923 26.6932 16.6021 26.9526 15.6172C27.4684 13.6602 27.9899 11.6895 28.2672 9.69282C28.5856 7.3997 28.2309 5.14466 27.0226 2.83683ZM20.6823 1.5164C20.6008 1.4306 20.5829 1.39456 20.5645 1.39456C16.1771 1.38593 10.2962 6.01226 9.40104 10.1731C9.25527 10.8508 9.38262 11.3976 10.1083 11.7169C10.8409 12.0397 11.5113 12.0144 12.0323 11.3879C12.3028 11.0625 12.478 10.6589 12.6701 10.2787C14.5046 6.65192 16.616 3.2587 20.6823 1.5164ZM31.6442 5.04618C33.2693 7.82919 33.3161 10.8026 32.8962 13.8211C32.7162 15.1136 32.3957 16.3874 32.1573 17.6728C31.9878 18.585 32.4241 19.2719 33.2719 19.4806C34.0702 19.677 34.7554 19.2876 35.0812 18.4525C36.8094 14.0206 35.3595 8.2211 31.6442 5.04618ZM29.0382 4.02121C29.6939 6.50926 29.807 9.01204 29.3108 11.5148C28.9998 13.084 28.5209 14.6212 28.1278 16.1757C27.8789 17.161 28.2735 17.9002 29.1382 18.1094C30.0628 18.3327 30.8548 17.9368 30.999 16.9422C31.34 14.5887 31.7242 12.2205 31.7673 9.85273C31.8084 7.59719 30.7569 5.63151 29.0382 4.02121ZM23.3657 2.08396C22.9089 2.18397 22.4395 2.24845 21.9964 2.38907C17.3233 3.87398 15.3056 7.67283 13.48 11.5991C13.1716 12.2621 13.6205 12.8941 14.3636 13.1454C15.1156 13.3993 15.7924 13.2429 16.206 12.5352C16.4202 12.1687 16.5355 11.7483 16.6991 11.3539C18.1805 7.78807 20.0745 4.5045 23.3657 2.08396ZM21.8359 26.1812C24.1746 26.1812 26.4122 26.0721 28.6319 26.2188C30.1796 26.3208 30.8906 25.4253 31.8868 24.3993C29.6818 24.3993 27.6778 24.5191 25.6975 24.3622C24.0251 24.2297 22.8205 24.7318 21.8359 26.1812Z" stroke="#009AC1" stroke-width="0.24" mask="url(#path-1-outside-1_200_695)"/>
</g>
<defs>
<clipPath id="clip0_200_695">
<rect width="40" height="37" fill="white"/>
</clipPath>
</defs>
</svg>
