<svg width="230" height="230" viewBox="0 0 230 230" fill="none" xmlns="http://www.w3.org/2000/svg">
<g opacity="0.48">
<path fill-rule="evenodd" clip-rule="evenodd" d="M143.411 121.393C139.75 106.696 147.656 87.2777 148.027 86.4819C149.141 83.829 153.067 84.0943 153.81 86.8533L160.495 111.843C168.029 98.5788 187.926 90.3019 188.721 89.9305C191.374 88.8694 193.974 91.8406 192.541 94.3342L176.147 122.719C180.498 121.446 184.105 121.393 184.477 121.393C199.757 121.393 216.788 134.339 217.478 134.922C219.759 136.673 218.486 140.387 215.621 140.387H189.729C200.606 151.105 203.471 172.486 203.577 173.335C203.949 176.2 200.394 177.898 198.378 175.882L170.47 147.974C170.947 175.033 168.507 188.828 166.703 195.354H215.78C217.478 195.354 218.804 196.733 218.804 198.431V210.369C218.804 212.067 217.478 213.393 215.78 213.393H14.2185C12.5207 213.393 11.1943 212.067 11.1943 210.369V198.431C11.1943 196.733 12.5207 195.354 14.2185 195.354H27.854C27.854 181.984 25.944 182.992 38.2531 182.992L46.4769 165.536L31.7802 154.076C28.7029 151.635 32.4699 146.807 35.5472 149.248L78.7883 182.992H125.637C127.335 182.992 128.661 184.371 128.661 186.069V195.354H148.186C155.986 180.074 157.896 160.177 158.214 147.603L129.935 175.882C127.919 177.898 124.364 176.2 124.735 173.335C124.894 172.38 127.759 151.211 138.583 140.387H112.691C109.879 140.387 108.606 136.673 110.834 134.922C111.577 134.339 128.237 121.658 143.411 121.393ZM226.816 228.992H3.18275C1.48494 228.992 0.105469 227.612 0.105469 225.914V29.7114C0.105469 28.0136 1.48494 26.6341 3.18275 26.6341H32.7883V4.08509C32.7883 2.38728 34.1678 1.00781 35.8656 1.00781H55.1781C56.8759 1.00781 58.2554 2.38728 58.2554 4.08509V26.6341H102.292V4.08509C102.292 2.38728 103.672 1.00781 105.37 1.00781H124.629C126.327 1.00781 127.706 2.38728 127.706 4.08509V26.6341H171.743V4.08509C171.743 2.38728 173.123 1.00781 174.821 1.00781H194.133C195.831 1.00781 197.21 2.38728 197.21 4.08509V26.6341H226.816C228.514 26.6341 229.893 28.0136 229.893 29.7114V225.914C229.893 227.612 228.514 228.992 226.816 228.992ZM6.20697 222.837H223.792V71.7852H6.20697V222.837ZM223.792 65.6307V32.7356H197.21V55.3377C197.21 57.0355 195.778 58.3619 194.133 58.3619H174.821C173.123 58.3619 171.743 56.9824 171.743 55.3377V32.7356H127.706C127.706 35.919 128.078 54.8602 127.547 56.3458L127.441 56.558L127.229 56.9824L127.123 57.1416L126.964 57.3008L126.857 57.4069L126.804 57.4599C126.751 57.4599 125.531 58.3619 124.629 58.3619H105.37C103.672 58.3619 102.292 56.9824 102.292 55.3377V32.7356H58.2554C58.2554 36.5026 58.5207 53.4807 58.2024 55.7621L58.0962 56.2397L58.0432 56.4519L57.9901 56.5049L57.9371 56.558L57.884 56.7172V56.7702L57.831 56.8233L57.7779 56.8763L57.7248 57.0355L57.6718 57.0886L57.5657 57.1947L57.5126 57.2477C57.4596 57.3008 57.4596 57.3538 57.4065 57.4069C56.8229 58.0436 56.027 58.3619 55.1781 58.3619C52.4192 58.415 36.7145 58.6802 35.1228 58.2558C33.7964 57.9375 32.7883 56.7702 32.7883 55.3377V32.7356H6.20697V65.6307H223.792ZM108.394 52.2604H121.605V7.16237H108.394V52.2604ZM177.898 52.2604H191.056V7.16237H177.898V52.2604ZM38.9428 52.2604H52.1009V7.16237H38.9428V52.2604ZM162.352 201.508H17.2958V207.292H212.703V201.508H162.352ZM33.9555 195.354H122.56V189.146H33.9555V195.354ZM154.977 195.354H160.283C161.822 190.844 164.899 177.845 164.368 147.072C164.05 159.435 162.299 179.225 154.977 195.354ZM44.9913 182.992H68.8137L51.4111 169.356L44.9913 182.992ZM43.3996 124.789C35.6533 124.789 29.2866 118.475 29.2866 110.729C29.2866 102.929 35.6003 96.6157 43.3996 96.6157C51.1989 96.6157 57.5126 102.929 57.5126 110.729C57.5126 118.475 51.1989 124.789 43.3996 124.789ZM43.3996 102.717C32.8944 102.717 32.8944 118.687 43.3996 118.687C53.9048 118.687 53.9048 102.717 43.3996 102.717ZM43.3996 93.5914C39.3142 93.5914 40.3223 87.8083 40.3223 84.2535C40.3223 80.3273 46.4769 80.3273 46.4769 84.2535C46.4769 87.8083 47.4849 93.5914 43.3996 93.5914ZM57.6718 99.4807C55.072 99.4807 53.5864 96.1912 55.4965 94.2812C58.0432 91.7345 61.3857 86.9063 64.2508 89.8244C67.1689 92.7425 62.3408 96.0851 59.8471 98.6318C59.2635 99.2154 58.4676 99.4807 57.6718 99.4807ZM69.8748 113.753C66.32 113.753 60.5368 114.814 60.5368 110.729C60.5368 106.59 66.32 107.651 69.8748 107.651C73.801 107.651 73.801 113.753 69.8748 113.753ZM62.1285 132.482C60.0063 132.482 56.9821 128.609 55.4965 127.123C52.7375 124.364 57.0351 120.014 59.8471 122.826C62.3408 125.319 67.1689 128.662 64.2508 131.58C63.6672 132.164 62.8713 132.482 62.1285 132.482ZM43.3996 140.228C39.3142 140.228 40.3223 134.445 40.3223 130.89C40.3223 126.964 46.4769 126.964 46.4769 130.89C46.4769 134.445 47.4849 140.228 43.3996 140.228ZM24.6706 132.482C22.0709 132.482 20.5853 129.192 22.5484 127.282C25.042 124.736 28.3846 119.907 31.3027 122.826C34.2208 125.691 29.3927 129.086 26.846 131.58C26.2623 132.164 25.4665 132.482 24.6706 132.482ZM23.2381 113.753C19.6303 113.753 13.9002 114.814 13.9002 110.729C13.9002 106.59 19.6303 107.651 23.2381 107.651C27.1643 107.651 27.1643 113.753 23.2381 113.753ZM29.1274 99.4807C27.0051 99.4807 23.9809 95.6076 22.5484 94.1751C19.7364 91.3631 24.087 87.0655 26.846 89.8244C29.3927 92.3711 34.2208 95.7137 31.3027 98.6318C30.7191 99.2154 29.9232 99.4807 29.1274 99.4807ZM168.984 134.286H205.222C199.439 131.049 191.533 127.548 184.477 127.548C184.318 127.548 173.813 127.654 168.984 134.286ZM179.224 140.387H171.531L195.353 164.21C192.86 155.243 189.199 145.428 179.224 140.387ZM164.156 130.413C164.634 129.829 165.111 129.245 165.589 128.715L182.036 100.224C172.592 105.847 162.458 113.435 162.83 126.911C162.883 128.927 163.042 128.927 164.156 130.413ZM148.345 134.286H159.328C154.5 127.654 143.995 127.548 143.889 127.548C136.779 127.548 128.927 130.996 123.09 134.286H148.345ZM149.141 140.387C139.114 145.428 135.453 155.243 132.959 164.21L156.781 140.387H149.141ZM150.096 122.189C152.112 122.613 154.447 123.303 156.728 124.417C156.781 123.728 156.834 123.038 156.994 122.295L150.574 98.4726C148.77 105.635 147.125 114.602 150.096 122.189Z" fill="#333333"/>
<path fill-rule="evenodd" clip-rule="evenodd" d="M52.1004 52.2606V7.1626H38.9424V52.2606H52.1004Z" fill="#FF3131"/>
<path fill-rule="evenodd" clip-rule="evenodd" d="M58.2555 32.7358C58.2555 36.5029 58.5208 53.4809 58.2024 55.7624L58.0963 56.2399L58.0432 56.4521L57.9902 56.5052L57.9371 56.5582L57.8841 56.7174V56.7704L57.831 56.8235L57.778 56.8766L57.7249 57.0357L57.6719 57.0888L57.5657 57.1949L57.5127 57.2479L57.4066 57.4071C56.8229 58.0438 56.0271 58.3621 55.1782 58.3621C52.4193 58.4152 36.7145 58.6805 35.1228 58.256C33.7964 57.9377 32.7883 56.7704 32.7883 55.3379V32.7358H6.20703V65.6309H223.792V32.7358H197.21V55.3379C197.21 57.0357 195.778 58.3621 194.133 58.3621H174.821C173.123 58.3621 171.743 56.9827 171.743 55.3379V32.7358H127.706C127.706 35.9192 128.078 54.8604 127.547 56.346L127.441 56.5582L127.229 56.9827L127.123 57.1418L126.964 57.301L126.858 57.4071L126.804 57.4602C126.751 57.4602 125.531 58.3621 124.629 58.3621H105.37C103.672 58.3621 102.292 56.9827 102.292 55.3379V32.7358H58.2555Z" fill="#FFA721"/>
<path fill-rule="evenodd" clip-rule="evenodd" d="M108.394 7.1626V52.2606H121.605V7.1626H108.394Z" fill="#FF3131"/>
<path fill-rule="evenodd" clip-rule="evenodd" d="M177.897 7.1626V52.2606H191.055V7.1626H177.897Z" fill="#FF3131"/>
<path fill-rule="evenodd" clip-rule="evenodd" d="M43.3994 118.687C53.9046 118.687 53.9046 102.717 43.3994 102.717C32.8942 102.717 32.8942 118.687 43.3994 118.687Z" fill="#FFA721"/>
<path fill-rule="evenodd" clip-rule="evenodd" d="M60.5369 110.729C60.5369 106.59 66.3201 107.651 69.8749 107.651C73.801 107.651 73.801 113.753 69.8749 113.753C66.3201 113.753 60.5369 114.814 60.5369 110.729ZM43.3997 96.6156C51.199 96.6156 57.5127 102.929 57.5127 110.729C57.5127 118.475 51.199 124.789 43.3997 124.789C35.6534 124.789 29.2866 118.475 29.2866 110.729C29.2866 102.929 35.6003 96.6156 43.3997 96.6156ZM143.411 121.393C139.75 106.696 147.656 87.2777 148.027 86.4818C149.141 83.829 153.067 84.0943 153.81 86.8532L160.495 111.843C168.029 98.5787 187.926 90.3019 188.721 89.9305C191.374 88.8694 193.974 91.8405 192.542 94.3342L176.147 122.719C180.498 121.446 184.106 121.393 184.477 121.393C199.757 121.393 216.788 134.339 217.478 134.922C219.76 136.673 218.486 140.387 215.621 140.387H189.73C200.606 151.105 203.471 172.486 203.577 173.335C203.949 176.2 200.394 177.898 198.378 175.882L170.47 147.974C170.948 175.033 168.507 188.828 166.703 195.354H215.78C217.478 195.354 218.804 196.733 218.804 198.431V210.369C218.804 212.067 217.478 213.393 215.78 213.393H14.2186C12.5208 213.393 11.1943 212.067 11.1943 210.369V198.431C11.1943 196.733 12.5208 195.354 14.2186 195.354H27.8541C27.8541 181.984 25.9441 182.992 38.2532 182.992L46.4769 165.536L31.7803 154.076C28.703 151.635 32.47 146.807 35.5473 149.248L78.7883 182.992H125.637C127.335 182.992 128.661 184.371 128.661 186.069V195.354H148.186C155.986 180.074 157.896 160.177 158.214 147.603L129.935 175.882C127.919 177.898 124.364 176.2 124.735 173.335C124.894 172.38 127.76 151.211 138.583 140.387H112.691C109.879 140.387 108.606 136.673 110.834 134.922C111.577 134.339 128.237 121.658 143.411 121.393ZM6.20703 222.837H223.792V71.7852H6.20703V222.837ZM64.2509 89.8244C67.169 92.7425 62.3408 96.085 59.8472 98.6318C59.2635 99.2154 58.4677 99.4807 57.6719 99.4807C55.0721 99.4807 53.5865 96.1912 55.4965 94.2811C58.0432 91.7344 61.3858 86.9063 64.2509 89.8244ZM46.4769 84.2534C46.4769 87.8082 47.485 93.5914 43.3997 93.5914C39.3143 93.5914 40.3224 87.8082 40.3224 84.2534C40.3224 80.3273 46.4769 80.3273 46.4769 84.2534ZM59.8472 122.826C62.3408 125.319 67.169 128.662 64.2509 131.58C63.6672 132.163 62.8714 132.482 62.1286 132.482C60.0063 132.482 56.9821 128.609 55.4965 127.123C52.7376 124.364 57.0352 120.014 59.8472 122.826ZM46.4769 130.89C46.4769 134.445 47.485 140.228 43.3997 140.228C39.3143 140.228 40.3224 134.445 40.3224 130.89C40.3224 126.964 46.4769 126.964 46.4769 130.89ZM31.3028 122.826C34.2209 125.691 29.3927 129.086 26.846 131.58C26.2624 132.163 25.4665 132.482 24.6707 132.482C22.0709 132.482 20.5853 129.192 22.5484 127.282C25.0421 124.736 28.3847 119.907 31.3028 122.826ZM23.2382 107.651C27.1644 107.651 27.1644 113.753 23.2382 113.753C19.6303 113.753 13.9002 114.814 13.9002 110.729C13.9002 106.59 19.6303 107.651 23.2382 107.651ZM26.846 89.8244C29.3927 92.3711 34.2209 95.7136 31.3028 98.6318C30.7191 99.2154 29.9233 99.4807 29.1274 99.4807C27.0052 99.4807 23.981 95.6075 22.5484 94.175C19.7364 91.363 24.0871 87.0654 26.846 89.8244Z" fill="#FFE4AF"/>
<path fill-rule="evenodd" clip-rule="evenodd" d="M68.8136 182.991L51.411 169.356L44.9912 182.991H68.8136Z" fill="#FFE4AF"/>
<path fill-rule="evenodd" clip-rule="evenodd" d="M122.56 189.146H33.9561V195.354H122.56V189.146Z" fill="#FFE4AF"/>
<path fill-rule="evenodd" clip-rule="evenodd" d="M162.352 201.508H17.2959V207.291H212.703V201.508H162.352Z" fill="#1AA1FF"/>
<path fill-rule="evenodd" clip-rule="evenodd" d="M164.369 147.072C164.05 159.434 162.299 179.225 154.978 195.354H160.283C161.822 190.844 164.899 177.845 164.369 147.072Z" fill="#FF3131"/>
<path fill-rule="evenodd" clip-rule="evenodd" d="M171.531 140.387L195.354 164.21C192.86 155.243 189.199 145.428 179.224 140.387H171.531Z" fill="#7DD63E"/>
<path fill-rule="evenodd" clip-rule="evenodd" d="M168.984 134.286H205.222C199.439 131.05 191.533 127.548 184.477 127.548C184.318 127.548 173.813 127.654 168.984 134.286Z" fill="#7DD63E"/>
<path fill-rule="evenodd" clip-rule="evenodd" d="M165.589 128.715L182.037 100.224C172.593 105.848 162.459 113.435 162.83 126.911C162.883 128.927 163.042 128.927 164.157 130.413C164.634 129.829 165.112 129.246 165.589 128.715Z" fill="#7DD63E"/>
<path fill-rule="evenodd" clip-rule="evenodd" d="M156.994 122.295L150.574 98.4727C148.771 105.635 147.126 114.602 150.097 122.189C152.113 122.613 154.448 123.303 156.729 124.417C156.782 123.728 156.835 123.038 156.994 122.295Z" fill="#7DD63E"/>
<path fill-rule="evenodd" clip-rule="evenodd" d="M159.328 134.286C154.5 127.654 143.995 127.548 143.889 127.548C136.779 127.548 128.927 130.997 123.091 134.286H148.346H159.328Z" fill="#7DD63E"/>
<path fill-rule="evenodd" clip-rule="evenodd" d="M149.141 140.387C139.114 145.428 135.453 155.243 132.959 164.21L156.781 140.387H149.141Z" fill="#7DD63E"/>
</g>
</svg>
