<svg width="17" height="17" viewBox="0 0 17 17" fill="none" xmlns="http://www.w3.org/2000/svg">
<path d="M10.6604 4.04183C11.3523 4.17681 11.9881 4.51518 12.4865 5.01362C12.985 5.51206 13.3234 6.14789 13.4583 6.83975M10.6604 1.2085C12.0978 1.36818 13.4382 2.01187 14.4615 3.03388C15.4848 4.05588 16.1302 5.39546 16.2917 6.83266M15.5833 12.4852V14.6102C15.5841 14.8074 15.5437 15.0027 15.4647 15.1834C15.3857 15.3642 15.2698 15.5265 15.1244 15.6598C14.979 15.7932 14.8074 15.8947 14.6205 15.9579C14.4337 16.0211 14.2356 16.0446 14.0392 16.0268C11.8595 15.79 9.76579 15.0452 7.92625 13.8522C6.2148 12.7647 4.76378 11.3137 3.67625 9.60225C2.47915 7.75435 1.73417 5.65045 1.50167 3.461C1.48397 3.26512 1.50725 3.0677 1.57002 2.88131C1.6328 2.69493 1.7337 2.52365 1.86629 2.37839C1.99889 2.23314 2.16028 2.11708 2.34019 2.03762C2.52009 1.95815 2.71458 1.91701 2.91125 1.91683H5.03625C5.38001 1.91345 5.71327 2.03518 5.97392 2.25933C6.23456 2.48349 6.40481 2.79477 6.45292 3.13516C6.54261 3.81521 6.70894 4.48293 6.94875 5.12558C7.04405 5.37911 7.06468 5.65464 7.00818 5.91954C6.95169 6.18443 6.82045 6.42757 6.63 6.62016L5.73042 7.51975C6.73877 9.29309 8.20707 10.7614 9.98042 11.7697L10.88 10.8702C11.0726 10.6797 11.3157 10.5485 11.5806 10.492C11.8455 10.4355 12.1211 10.4561 12.3746 10.5514C13.0172 10.7912 13.685 10.9576 14.365 11.0472C14.7091 11.0958 15.0233 11.2691 15.248 11.5342C15.4726 11.7993 15.592 12.1378 15.5833 12.4852Z" stroke="#009AC1" stroke-width="1.41667" stroke-linecap="round" stroke-linejoin="round"/>
</svg>
