<svg width="15" height="20" viewBox="0 0 15 20" fill="none" xmlns="http://www.w3.org/2000/svg">
<path d="M14.6712 4.06233L14.417 3.80533L11.0883 0.440333L10.834 0.183333C10.719 0.067 10.5594 0 10.3961 0H0.826545C0.435478 0 0.0144043 0.305333 0.0144043 0.975333V13V18.5123V18.6667C0.0144043 18.9457 0.292042 19.2177 0.62046 19.3033C0.636946 19.3077 0.652774 19.314 0.66992 19.3173C0.721359 19.3277 0.773787 19.3333 0.826545 19.3333H14.0404C14.0932 19.3333 14.1456 19.3277 14.197 19.3173C14.2142 19.314 14.23 19.3077 14.2465 19.3033C14.5749 19.2177 14.8525 18.9457 14.8525 18.6667V18.5123V13V4.65933C14.8525 4.40367 14.8222 4.215 14.6712 4.06233ZM13.677 4H10.8957V1.18833L13.677 4ZM0.826545 18.6667C0.803133 18.6667 0.78203 18.658 0.761257 18.6503C0.709818 18.6257 0.673877 18.5737 0.673877 18.5123V13.6667H14.1931V18.5123C14.1931 18.5737 14.1571 18.6253 14.1057 18.6503C14.0849 18.658 14.0638 18.6667 14.0404 18.6667H0.826545ZM0.673877 13V0.975333C0.673877 0.903 0.684758 0.666667 0.826545 0.666667H10.2554C10.2445 0.708667 10.2362 0.752 10.2362 0.797V4.66667H14.0641C14.1086 4.66667 14.1512 4.65833 14.1927 4.64733C14.1927 4.65233 14.1931 4.65433 14.1931 4.65933V13H0.673877Z" fill="#CD0000"/>
<path d="M5.13919 14.9147C5.02939 14.8237 4.90541 14.755 4.76725 14.7097C4.62909 14.664 4.48928 14.6413 4.34815 14.6413H3.39258V18H3.93367V16.7877H4.33496C4.50906 16.7877 4.66866 16.762 4.81275 16.7103C4.95685 16.6587 5.08017 16.5857 5.18239 16.4917C5.2846 16.3977 5.36407 16.2813 5.42145 16.143C5.47849 16.0047 5.50718 15.8507 5.50718 15.6803C5.50718 15.5193 5.47321 15.3743 5.40562 15.245C5.33802 15.1157 5.24899 15.006 5.13919 14.9147ZM4.93409 16.0243C4.90079 16.117 4.8576 16.189 4.80352 16.2407C4.74944 16.2923 4.69009 16.3297 4.62546 16.3523C4.56083 16.375 4.49522 16.3867 4.42927 16.3867H3.93335V15.056H4.33892C4.47708 15.056 4.5882 15.078 4.67261 15.122C4.7567 15.166 4.82198 15.2207 4.86881 15.286C4.9153 15.3513 4.94597 15.4197 4.96113 15.491C4.97597 15.5623 4.98356 15.6253 4.98356 15.68C4.98356 15.817 4.96707 15.9317 4.93409 16.0243Z" fill="#CD0000"/>
<path d="M8.4075 15.1333C8.26769 14.9847 8.09194 14.865 7.87992 14.7757C7.6679 14.6863 7.42225 14.6413 7.14296 14.6413H6.14221V18H7.39983C7.4417 18 7.50633 17.9947 7.59371 17.984C7.68076 17.9733 7.77704 17.9493 7.88223 17.911C7.98742 17.873 8.09623 17.816 8.209 17.74C8.32177 17.664 8.423 17.56 8.51335 17.4277C8.60369 17.2953 8.67788 17.1313 8.73658 16.9353C8.79527 16.7393 8.82462 16.503 8.82462 16.2267C8.82462 16.026 8.78999 15.8307 8.72108 15.641C8.6515 15.4517 8.54731 15.2823 8.4075 15.1333ZM8.01314 17.2433C7.85091 17.4803 7.58646 17.5987 7.21979 17.5987H6.68331V15.0557H6.99887C7.25738 15.0557 7.46775 15.09 7.62998 15.1583C7.79221 15.2267 7.92081 15.3163 8.01544 15.4273C8.11008 15.5383 8.17372 15.662 8.20702 15.7987C8.23999 15.9353 8.25648 16.0737 8.25648 16.2133C8.25648 16.663 8.17537 17.0067 8.01314 17.2433Z" fill="#CD0000"/>
<path d="M9.60901 18H10.159V16.487H11.5475V16.1133H10.159V15.056H11.687V14.6413H9.60901V18Z" fill="#CD0000"/>
<path d="M10.5423 7.65368C10.2393 7.65368 9.86731 7.69368 9.43503 7.77301C8.83161 7.12568 8.20181 6.18035 7.75733 5.25235C8.19819 3.37601 7.97759 3.11035 7.88032 2.98501C7.77678 2.85168 7.63071 2.63535 7.46452 2.63535C7.39495 2.63535 7.20502 2.66735 7.12951 2.69268C6.93958 2.75668 6.83737 2.90468 6.75559 3.09768C6.52247 3.64868 6.84231 4.58801 7.17139 5.31201C6.89012 6.44301 6.41827 7.79668 5.92235 8.89535C4.67265 9.47401 4.00889 10.0423 3.94888 10.5847C3.92711 10.782 3.97328 11.0717 4.31653 11.332C4.41051 11.403 4.52064 11.4407 4.63539 11.4407C4.92391 11.4407 5.21539 11.2173 5.55271 10.7383C5.7987 10.389 6.06282 9.91268 6.33848 9.32135C7.22151 8.93101 8.31392 8.57835 9.24939 8.38068C9.77037 8.88635 10.2369 9.14235 10.6379 9.14235C10.9333 9.14235 11.1866 9.00501 11.3699 8.74535C11.5608 8.47501 11.6044 8.23301 11.4985 8.02535C11.3716 7.77568 11.0586 7.65368 10.5423 7.65368ZM4.64264 10.878C4.48832 10.7583 4.49723 10.6777 4.50053 10.6473C4.52097 10.462 4.80817 10.133 5.51282 9.73268C4.97864 10.73 4.69177 10.8623 4.64264 10.878ZM7.34648 3.23735C7.36066 3.23268 7.69105 3.60435 7.37813 4.30935C6.90793 3.82301 7.31416 3.24835 7.34648 3.23735ZM6.66491 8.57935C6.9996 7.77301 7.31087 6.88268 7.54663 6.05801C7.91692 6.73068 8.36174 7.38335 8.80688 7.90601C8.10322 8.07301 7.35406 8.30868 6.66491 8.57935ZM10.9188 8.41968C10.8173 8.56335 10.597 8.56668 10.5199 8.56668C10.3441 8.56668 10.2785 8.46101 10.0098 8.25201C10.2313 8.22335 10.4404 8.21601 10.6069 8.21601C10.9 8.21601 10.9538 8.25968 10.9944 8.28168C10.9871 8.30535 10.968 8.35001 10.9188 8.41968Z" fill="#CD0000"/>
</svg>
