<svg width="29" height="31" viewBox="0 0 29 31" fill="none" xmlns="http://www.w3.org/2000/svg">
<path d="M23.75 12.4167L21.5762 10.2275L11.4167 20.3871L7.42375 16.4096L5.25 18.5834L11.4167 24.75L23.75 12.4167ZM25.2917 3.16671H18.8475C18.2 1.37837 16.5042 0.083374 14.5 0.083374C12.4958 0.083374 10.8 1.37837 10.1525 3.16671H3.70833C3.4925 3.16671 3.29208 3.18212 3.09167 3.22837C2.49042 3.35171 1.95083 3.66004 1.53458 4.07629C1.25708 4.35379 1.02583 4.69296 0.871667 5.06296C0.7175 5.41754 0.625 5.81837 0.625 6.25004V27.8334C0.625 28.2496 0.7175 28.6659 0.871667 29.0359C1.02583 29.4059 1.25708 29.7296 1.53458 30.0225C1.95083 30.4388 2.49042 30.7471 3.09167 30.8705C3.29208 30.9013 3.4925 30.9167 3.70833 30.9167H25.2917C26.9875 30.9167 28.375 29.5292 28.375 27.8334V6.25004C28.375 4.55421 26.9875 3.16671 25.2917 3.16671ZM14.5 2.78129C15.1321 2.78129 15.6562 3.30546 15.6562 3.93754C15.6562 4.56962 15.1321 5.09379 14.5 5.09379C13.8679 5.09379 13.3437 4.56962 13.3437 3.93754C13.3437 3.30546 13.8679 2.78129 14.5 2.78129ZM25.2917 27.8334H3.70833V6.25004H25.2917V27.8334Z" fill="#7B7B7B"/>
<path d="M23.75 12.4167L21.5762 10.2275L11.4167 20.3871L7.42375 16.4096L5.25 18.5834L11.4167 24.75L23.75 12.4167ZM25.2917 3.16671H18.8475C18.2 1.37837 16.5042 0.083374 14.5 0.083374C12.4958 0.083374 10.8 1.37837 10.1525 3.16671H3.70833C3.4925 3.16671 3.29208 3.18212 3.09167 3.22837C2.49042 3.35171 1.95083 3.66004 1.53458 4.07629C1.25708 4.35379 1.02583 4.69296 0.871667 5.06296C0.7175 5.41754 0.625 5.81837 0.625 6.25004V27.8334C0.625 28.2496 0.7175 28.6659 0.871667 29.0359C1.02583 29.4059 1.25708 29.7296 1.53458 30.0225C1.95083 30.4388 2.49042 30.7471 3.09167 30.8705C3.29208 30.9013 3.4925 30.9167 3.70833 30.9167H25.2917C26.9875 30.9167 28.375 29.5292 28.375 27.8334V6.25004C28.375 4.55421 26.9875 3.16671 25.2917 3.16671ZM14.5 2.78129C15.1321 2.78129 15.6562 3.30546 15.6562 3.93754C15.6562 4.56962 15.1321 5.09379 14.5 5.09379C13.8679 5.09379 13.3437 4.56962 13.3437 3.93754C13.3437 3.30546 13.8679 2.78129 14.5 2.78129ZM25.2917 27.8334H3.70833V6.25004H25.2917V27.8334Z" fill="black" fill-opacity="0.2"/>
</svg>
