<svg width="28" height="20" viewBox="0 0 28 20" fill="none" xmlns="http://www.w3.org/2000/svg">
<path d="M0 19.3333V16.0958C0 15.4347 0.165278 14.8222 0.495833 14.2583C0.826389 13.6944 1.28333 13.2666 1.86667 12.975C2.13889 12.8388 2.40139 12.7125 2.65417 12.5958C2.92639 12.4791 3.20833 12.3722 3.5 12.275V19.3333H0ZM4.66667 11.1666C3.69444 11.1666 2.86806 10.8263 2.1875 10.1458C1.50694 9.46524 1.16667 8.63885 1.16667 7.66663C1.16667 6.6944 1.50694 5.86801 2.1875 5.18746C2.86806 4.5069 3.69444 4.16663 4.66667 4.16663C5.63889 4.16663 6.46528 4.5069 7.14583 5.18746C7.82639 5.86801 8.16667 6.6944 8.16667 7.66663C8.16667 8.63885 7.82639 9.46524 7.14583 10.1458C6.46528 10.8263 5.63889 11.1666 4.66667 11.1666ZM4.66667 8.83329C4.99722 8.83329 5.26944 8.72635 5.48333 8.51246C5.71667 8.27913 5.83333 7.99718 5.83333 7.66663C5.83333 7.33607 5.71667 7.06385 5.48333 6.84996C5.26944 6.61663 4.99722 6.49996 4.66667 6.49996C4.33611 6.49996 4.05417 6.61663 3.82083 6.84996C3.60694 7.06385 3.5 7.33607 3.5 7.66663C3.5 7.99718 3.60694 8.27913 3.82083 8.51246C4.05417 8.72635 4.33611 8.83329 4.66667 8.83329ZM4.66667 19.3333V16.0666C4.66667 15.4055 4.83194 14.8027 5.1625 14.2583C5.5125 13.6944 5.96944 13.2666 6.53333 12.975C7.73889 12.3722 8.96389 11.925 10.2083 11.6333C11.4528 11.3222 12.7167 11.1666 14 11.1666C15.2833 11.1666 16.5472 11.3222 17.7917 11.6333C19.0361 11.925 20.2611 12.3722 21.4667 12.975C22.0306 13.2666 22.4778 13.6944 22.8083 14.2583C23.1583 14.8027 23.3333 15.4055 23.3333 16.0666V19.3333H4.66667ZM7 17H21V16.0666C21 15.8527 20.9417 15.6583 20.825 15.4833C20.7278 15.3083 20.5917 15.1722 20.4167 15.075C19.3667 14.55 18.3069 14.1611 17.2375 13.9083C16.1681 13.6361 15.0889 13.5 14 13.5C12.9111 13.5 11.8319 13.6361 10.7625 13.9083C9.69306 14.1611 8.63333 14.55 7.58333 15.075C7.40833 15.1722 7.2625 15.3083 7.14583 15.4833C7.04861 15.6583 7 15.8527 7 16.0666V17ZM14 9.99996C12.7167 9.99996 11.6181 9.54301 10.7042 8.62913C9.79028 7.71524 9.33333 6.61663 9.33333 5.33329C9.33333 4.04996 9.79028 2.95135 10.7042 2.03746C11.6181 1.12357 12.7167 0.666626 14 0.666626C15.2833 0.666626 16.3819 1.12357 17.2958 2.03746C18.2097 2.95135 18.6667 4.04996 18.6667 5.33329C18.6667 6.61663 18.2097 7.71524 17.2958 8.62913C16.3819 9.54301 15.2833 9.99996 14 9.99996ZM14 7.66663C14.6417 7.66663 15.1861 7.44301 15.6333 6.99579C16.1 6.52913 16.3333 5.97496 16.3333 5.33329C16.3333 4.69163 16.1 4.14718 15.6333 3.69996C15.1861 3.23329 14.6417 2.99996 14 2.99996C13.3583 2.99996 12.8042 3.23329 12.3375 3.69996C11.8903 4.14718 11.6667 4.69163 11.6667 5.33329C11.6667 5.97496 11.8903 6.52913 12.3375 6.99579C12.8042 7.44301 13.3583 7.66663 14 7.66663ZM23.3333 11.1666C22.3611 11.1666 21.5347 10.8263 20.8542 10.1458C20.1736 9.46524 19.8333 8.63885 19.8333 7.66663C19.8333 6.6944 20.1736 5.86801 20.8542 5.18746C21.5347 4.5069 22.3611 4.16663 23.3333 4.16663C24.3056 4.16663 25.1319 4.5069 25.8125 5.18746C26.4931 5.86801 26.8333 6.6944 26.8333 7.66663C26.8333 8.63885 26.4931 9.46524 25.8125 10.1458C25.1319 10.8263 24.3056 11.1666 23.3333 11.1666ZM23.3333 8.83329C23.6639 8.83329 23.9361 8.72635 24.15 8.51246C24.3833 8.27913 24.5 7.99718 24.5 7.66663C24.5 7.33607 24.3833 7.06385 24.15 6.84996C23.9361 6.61663 23.6639 6.49996 23.3333 6.49996C23.0028 6.49996 22.7208 6.61663 22.4875 6.84996C22.2736 7.06385 22.1667 7.33607 22.1667 7.66663C22.1667 7.99718 22.2736 8.27913 22.4875 8.51246C22.7208 8.72635 23.0028 8.83329 23.3333 8.83329ZM24.5 19.3333V12.275C24.7917 12.3722 25.0639 12.4791 25.3167 12.5958C25.5889 12.7125 25.8611 12.8388 26.1333 12.975C26.7167 13.2666 27.1736 13.6944 27.5042 14.2583C27.8347 14.8222 28 15.4347 28 16.0958V19.3333H24.5Z" fill="#666666" style="mix-blend-mode:luminosity"/>
</svg>
