<svg width="20" height="21" viewBox="0 0 20 21" fill="none" xmlns="http://www.w3.org/2000/svg">
<path d="M3.33334 17.1668C2.87501 17.1668 2.48264 17.0036 2.15626 16.6772C1.82987 16.3509 1.66667 15.9585 1.66667 15.5002V5.50016C1.66667 5.04183 1.82987 4.64947 2.15626 4.32308C2.48264 3.99669 2.87501 3.8335 3.33334 3.8335H16.6667C17.125 3.8335 17.5174 3.99669 17.8438 4.32308C18.1701 4.64947 18.3333 5.04183 18.3333 5.50016V15.5002C18.3333 15.9585 18.1701 16.3509 17.8438 16.6772C17.5174 17.0036 17.125 17.1668 16.6667 17.1668H3.33334ZM10 11.3335L3.33334 7.16683V15.5002H16.6667V7.16683L10 11.3335ZM10 9.66683L16.6667 5.50016H3.33334L10 9.66683ZM3.33334 7.16683V5.50016V15.5002V7.16683Z" fill="#009AC1"/>
</svg>
