<svg width="28" height="30" viewBox="0 0 28 30" fill="none" xmlns="http://www.w3.org/2000/svg">
<path d="M24.5 3.66671H18.23C17.6 2.02337 15.95 0.833374 14 0.833374C12.05 0.833374 10.4 2.02337 9.77 3.66671H3.5C1.85 3.66671 0.5 4.94171 0.5 6.50004V26.3334C0.5 27.8917 1.85 29.1667 3.5 29.1667H24.5C26.15 29.1667 27.5 27.8917 27.5 26.3334V6.50004C27.5 4.94171 26.15 3.66671 24.5 3.66671ZM14 3.31254C14.33 3.31254 14.615 3.45421 14.825 3.66671C15.005 3.85087 15.125 4.10587 15.125 4.37504C15.125 4.95587 14.615 5.43754 14 5.43754C13.385 5.43754 12.875 4.95587 12.875 4.37504C12.875 4.10587 12.995 3.85087 13.175 3.66671C13.385 3.45421 13.67 3.31254 14 3.31254ZM24.5 26.3334H3.5V6.50004H24.5V26.3334ZM14 7.91671C11.525 7.91671 9.5 9.82921 9.5 12.1667C9.5 14.5042 11.525 16.4167 14 16.4167C16.475 16.4167 18.5 14.5042 18.5 12.1667C18.5 9.82921 16.475 7.91671 14 7.91671ZM14 13.5834C13.175 13.5834 12.5 12.9459 12.5 12.1667C12.5 11.3875 13.175 10.75 14 10.75C14.825 10.75 15.5 11.3875 15.5 12.1667C15.5 12.9459 14.825 13.5834 14 13.5834ZM5 22.7492V24.9167H23V22.7492C23 19.2075 17.045 17.6775 14 17.6775C10.955 17.6775 5 19.1934 5 22.7492ZM8.465 22.0834C9.5 21.29 12.035 20.4967 14 20.4967C15.965 20.4967 18.515 21.29 19.535 22.0834H8.465Z" fill="#555555"/>
</svg>
