<svg width="32" height="32" viewBox="0 0 32 32" fill="none" xmlns="http://www.w3.org/2000/svg">
<circle cx="15.7447" cy="15.7447" r="15.7447" fill="#F9F9F9"/>
<path d="M6.29788 24.0106V21.6489H8.65958V13.383C8.65958 11.7495 9.15161 10.3029 10.1356 9.04334C11.1197 7.76408 12.3989 6.92765 13.9734 6.53403V5.70743C13.9734 5.21541 14.1407 4.80211 14.4753 4.46754C14.8295 4.11328 15.2527 3.93616 15.7447 3.93616C16.2367 3.93616 16.65 4.11328 16.9846 4.46754C17.3388 4.80211 17.516 5.21541 17.516 5.70743V6.53403C19.0904 6.92765 20.3697 7.76408 21.3537 9.04334C22.3378 10.3029 22.8298 11.7495 22.8298 13.383V21.6489H25.1915V24.0106H6.29788ZM15.7447 27.5532C15.0952 27.5532 14.5343 27.3268 14.062 26.8742C13.6093 26.4018 13.383 25.8409 13.383 25.1915H18.1064C18.1064 25.8409 17.8702 26.4018 17.3979 26.8742C16.9452 27.3268 16.3942 27.5532 15.7447 27.5532ZM11.0213 21.6489H20.4681V13.383C20.4681 12.084 20.0056 10.9721 19.0806 10.0471C18.1556 9.12206 17.0436 8.65956 15.7447 8.65956C14.4458 8.65956 13.3338 9.12206 12.4088 10.0471C11.4838 10.9721 11.0213 12.084 11.0213 13.383V21.6489Z" fill="#ABABAB"/>
</svg>
