<svg width="32" height="32" viewBox="0 0 32 32" fill="none" xmlns="http://www.w3.org/2000/svg">
<circle cx="15.7447" cy="16.2339" r="15.7447" fill="#EEF7FF"/>
<path d="M6.29785 24.5V22.1383H8.65955V13.8723C8.65955 12.2388 9.15157 10.7923 10.1356 9.53272C11.1197 8.25346 12.3989 7.41703 13.9734 7.02341V6.19681C13.9734 5.70479 14.1407 5.29149 14.4752 4.95692C14.8295 4.60266 15.2526 4.42554 15.7447 4.42554C16.2367 4.42554 16.65 4.60266 16.9846 4.95692C17.3388 5.29149 17.5159 5.70479 17.5159 6.19681V7.02341C19.0904 7.41703 20.3697 8.25346 21.3537 9.53272C22.3377 10.7923 22.8298 12.2388 22.8298 13.8723V22.1383H25.1915V24.5H6.29785ZM15.7447 28.0426C15.0952 28.0426 14.5343 27.8162 14.0619 27.3636C13.6093 26.8912 13.383 26.3303 13.383 25.6809H18.1064C18.1064 26.3303 17.8702 26.8912 17.3979 27.3636C16.9452 27.8162 16.3941 28.0426 15.7447 28.0426ZM11.0213 22.1383H20.4681V13.8723C20.4681 12.5734 20.0056 11.4614 19.0806 10.5364C18.1556 9.61144 17.0436 9.14894 15.7447 9.14894C14.4457 9.14894 13.3338 9.61144 12.4088 10.5364C11.4838 11.4614 11.0213 12.5734 11.0213 13.8723V22.1383Z" fill="#009AC1"/>
</svg>
