<svg width="71" height="49" viewBox="0 0 71 49" fill="none" xmlns="http://www.w3.org/2000/svg">
<path d="M67.3276 4.89655H3.67241C1.6442 4.89655 0 6.54074 0 8.56896V45.2931C0 47.3213 1.6442 48.9655 3.67241 48.9655H67.3276C69.3558 48.9655 71 47.3213 71 45.2931V8.56896C71 6.54074 69.3558 4.89655 67.3276 4.89655Z" fill="#547580"/>
<path fill-rule="evenodd" clip-rule="evenodd" d="M71 39.1724V45.2931C71 47.3213 69.3558 48.9655 67.3276 48.9655H3.67241C1.6442 48.9655 0 47.3213 0 45.2931V39.1724H71Z" fill="#3F5C6C"/>
<path fill-rule="evenodd" clip-rule="evenodd" d="M19.5862 4.89655V2.44828C19.5862 1.09613 18.4901 0 17.138 0H9.79312C8.44098 0 7.34485 1.09613 7.34485 2.44828V4.89655H19.5862Z" fill="#2C3E50"/>
<path d="M35.5 44.069C44.965 44.069 52.6379 36.396 52.6379 26.931C52.6379 17.466 44.965 9.79309 35.5 9.79309C26.035 9.79309 18.3621 17.466 18.3621 26.931C18.3621 36.396 26.035 44.069 35.5 44.069Z" fill="#35495E"/>
<path d="M35.5 39.1724C42.2608 39.1724 47.7414 33.6917 47.7414 26.931C47.7414 20.1703 42.2608 14.6896 35.5 14.6896C28.7393 14.6896 23.2587 20.1703 23.2587 26.931C23.2587 33.6917 28.7393 39.1724 35.5 39.1724Z" fill="#2FA8CC"/>
<path d="M63.6551 9.79309H56.3103C55.6342 9.79309 55.0862 10.3412 55.0862 11.0172V13.4655C55.0862 14.1416 55.6342 14.6896 56.3103 14.6896H63.6551C64.3312 14.6896 64.8793 14.1416 64.8793 13.4655V11.0172C64.8793 10.3412 64.3312 9.79309 63.6551 9.79309Z" fill="#F0C419"/>
<path fill-rule="evenodd" clip-rule="evenodd" d="M30.6034 25.7069C30.9279 25.7072 31.2392 25.5786 31.4689 25.3495L33.9172 22.9012C34.3958 22.4232 34.3964 21.6477 33.9184 21.169C33.4404 20.6904 32.6649 20.6898 32.1862 21.1678L29.738 23.6161C29.3871 23.9661 29.2819 24.4931 29.4714 24.951C29.6609 25.4089 30.1079 25.7073 30.6034 25.7069Z" fill="#67B9CC"/>
<path fill-rule="evenodd" clip-rule="evenodd" d="M41.2632 27.291C41.0336 27.0611 40.722 26.9319 40.3971 26.9319C40.0722 26.9319 39.7607 27.0611 39.5311 27.291L34.6345 32.1875C34.1558 32.6655 34.1553 33.441 34.6333 33.9197C35.1113 34.3983 35.8868 34.3989 36.3654 33.9209L41.262 29.0243C41.4924 28.7949 41.622 28.4831 41.6222 28.1579C41.6225 27.8327 41.4933 27.5208 41.2632 27.291Z" fill="#67B9CC"/>
<path fill-rule="evenodd" clip-rule="evenodd" d="M40.0402 21.1693C39.5622 20.6914 38.7873 20.6914 38.3093 21.1693L29.7403 29.7383C29.4221 30.0456 29.2945 30.5008 29.4065 30.9288C29.5185 31.3568 29.8528 31.691 30.2808 31.803C30.7088 31.9151 31.1639 31.7874 31.4713 31.4692L40.0402 22.9003C40.5181 22.4222 40.5181 21.6473 40.0402 21.1693Z" fill="#67B9CC"/>
</svg>
