<svg width="131" height="129" viewBox="0 0 131 129" fill="none" xmlns="http://www.w3.org/2000/svg">
<rect width="130.379" height="129" rx="64.5" fill="#ABABAB"/>
<path fill-rule="evenodd" clip-rule="evenodd" d="M84.7469 51.6C84.7469 62.2867 75.991 70.95 65.1901 70.95C54.3892 70.95 45.6333 62.2867 45.6333 51.6C45.6333 40.9133 54.3892 32.25 65.1901 32.25C75.991 32.25 84.7469 40.9133 84.7469 51.6ZM78.2279 51.6C78.2279 58.7245 72.3907 64.5 65.1901 64.5C57.9895 64.5 52.1522 58.7245 52.1522 51.6C52.1522 44.4755 57.9895 38.7 65.1901 38.7C72.3907 38.7 78.2279 44.4755 78.2279 51.6Z" fill="white"/>
<path d="M65.1901 80.625C44.0871 80.625 26.1067 92.9716 19.2576 110.269C20.9261 111.909 22.6837 113.459 24.5227 114.913C29.6229 99.0323 45.6226 87.075 65.1901 87.075C84.7576 87.075 100.757 99.0323 105.858 114.913C107.696 113.459 109.454 111.909 111.123 110.269C104.273 92.9716 86.2931 80.625 65.1901 80.625Z" fill="white"/>
</svg>
