<svg width="17" height="17" viewBox="0 0 17 17" fill="none" xmlns="http://www.w3.org/2000/svg">
<path d="M7.08334 6.375V3.54166C7.08334 2.97808 7.30723 2.43758 7.70574 2.03906C8.10426 1.64055 8.64476 1.41666 9.20834 1.41666L12.0417 7.79166V15.5833H4.05168C3.71003 15.5872 3.37849 15.4675 3.11816 15.2462C2.85783 15.0249 2.68624 14.717 2.63501 14.3792L1.65751 8.00416C1.62669 7.80113 1.64039 7.59381 1.69764 7.39659C1.7549 7.19937 1.85435 7.01696 1.98911 6.86199C2.12387 6.70702 2.2907 6.5832 2.47806 6.49911C2.66542 6.41502 2.86883 6.37267 3.07418 6.375H7.08334ZM12.0417 15.5833H14.1667C14.5424 15.5833 14.9027 15.4341 15.1684 15.1684C15.4341 14.9027 15.5833 14.5424 15.5833 14.1667V9.20833C15.5833 8.83261 15.4341 8.47227 15.1684 8.2066C14.9027 7.94092 14.5424 7.79166 14.1667 7.79166H12.0417" fill="#EEF7FF"/>
<path d="M12.0417 7.79166L9.20834 1.41666C8.64476 1.41666 8.10426 1.64055 7.70574 2.03906C7.30723 2.43758 7.08334 2.97808 7.08334 3.54166V6.375H3.07418C2.86883 6.37267 2.66542 6.41502 2.47806 6.49911C2.2907 6.5832 2.12387 6.70702 1.98911 6.86199C1.85436 7.01696 1.7549 7.19937 1.69764 7.39659C1.64039 7.59381 1.62669 7.80112 1.65751 8.00416L2.63501 14.3792C2.68624 14.717 2.85783 15.0249 3.11816 15.2462C3.37849 15.4675 3.71003 15.5872 4.05168 15.5833H12.0417M12.0417 7.79166V15.5833M12.0417 7.79166H14.1667C14.5424 7.79166 14.9027 7.94092 15.1684 8.2066C15.4341 8.47227 15.5833 8.83261 15.5833 9.20833V14.1667C15.5833 14.5424 15.4341 14.9027 15.1684 15.1684C14.9027 15.4341 14.5424 15.5833 14.1667 15.5833H12.0417" stroke="#009AC1" stroke-linecap="round" stroke-linejoin="round"/>
</svg>
