<svg width="17" height="17" viewBox="0 0 17 17" fill="none" xmlns="http://www.w3.org/2000/svg">
<path d="M12.0417 7.79166L9.20834 1.41666C8.64476 1.41666 8.10426 1.64054 7.70574 2.03905C7.30723 2.43757 7.08334 2.97807 7.08334 3.54166V6.37499H3.07418C2.86883 6.37266 2.66542 6.41501 2.47806 6.4991C2.2907 6.58319 2.12387 6.70701 1.98911 6.86198C1.85436 7.01695 1.7549 7.19936 1.69764 7.39658C1.64039 7.59381 1.62669 7.80112 1.65751 8.00416L2.63501 14.3792C2.68624 14.717 2.85783 15.0249 3.11816 15.2462C3.37849 15.4674 3.71003 15.5872 4.05168 15.5833H12.0417M12.0417 7.79166V15.5833M12.0417 7.79166H14.1667C14.5424 7.79166 14.9027 7.94091 15.1684 8.20659C15.4341 8.47227 15.5833 8.8326 15.5833 9.20832V14.1667C15.5833 14.5424 15.4341 14.9027 15.1684 15.1684C14.9027 15.4341 14.5424 15.5833 14.1667 15.5833H12.0417" stroke="#7B7B7B" stroke-linecap="round" stroke-linejoin="round"/>
</svg>
