<svg width="71" height="71" viewBox="0 0 71 71" fill="none" xmlns="http://www.w3.org/2000/svg">
<path d="M12.4446 11.8334V11.8338L12.415 59.1667C12.415 59.1669 12.415 59.167 12.415 59.1671M12.4446 11.8334L12.415 59.1671M12.4446 11.8334C12.4446 8.89686 14.8207 6.49872 17.7497 6.49872H41.1753L58.5844 23.9078M12.4446 11.8334L58.5844 23.9078M12.415 59.1671C12.4152 62.1035 14.7912 64.5014 17.7201 64.5014H53.2497C56.1824 64.5014 58.5844 62.0995 58.5844 59.1667V23.9078M12.415 59.1671L58.5844 23.9078M53.2497 59.7487H53.8316V59.1667V26.6251V26.0431H53.2497H39.04V11.8334V11.2514H38.458H17.7497H17.1677V11.8334V59.1667V59.7487H17.7497H53.2497ZM37.876 43.9017V55.6264H33.1233V43.9017V42.503L32.1311 43.4889L27.8389 47.7542L24.4894 44.4047L35.5282 33.3658L46.5125 44.4051L43.1603 47.781L38.8695 43.4902L37.876 42.4968V43.9017Z" fill="#555555" stroke="white" stroke-width="1.16393"/>
</svg>
