<svg width="31" height="32" viewBox="0 0 31 32" fill="none" xmlns="http://www.w3.org/2000/svg">
<rect width="31" height="32" rx="15.5" fill="#ABABAB"/>
<path fill-rule="evenodd" clip-rule="evenodd" d="M20.1502 12.8C20.1502 15.451 18.0683 17.6 15.5002 17.6C12.9321 17.6 10.8502 15.451 10.8502 12.8C10.8502 10.149 12.9321 8 15.5002 8C18.0683 8 20.1502 10.149 20.1502 12.8ZM18.6002 12.8C18.6002 14.5673 17.2123 16 15.5002 16C13.7881 16 12.4002 14.5673 12.4002 12.8C12.4002 11.0327 13.7881 9.6 15.5002 9.6C17.2123 9.6 18.6002 11.0327 18.6002 12.8Z" fill="white"/>
<path d="M15.5002 20C10.4825 20 6.20738 23.0627 4.57886 27.3536C4.97558 27.7603 5.39349 28.1449 5.83074 28.5056C7.04341 24.5662 10.8476 21.6 15.5002 21.6C20.1527 21.6 23.957 24.5662 25.1696 28.5057C25.6069 28.1449 26.0248 27.7603 26.4215 27.3536C24.793 23.0627 20.5178 20 15.5002 20Z" fill="white"/>
</svg>
