<svg width="71" height="72" viewBox="0 0 71 72" fill="none" xmlns="http://www.w3.org/2000/svg">
<path d="M17.6703 63.8763C16.5516 63.8763 15.5798 63.4638 14.7549 62.639C13.93 61.8141 13.5176 60.8442 13.5176 59.7294V12.2704C13.5176 11.1556 13.93 10.1857 14.7549 9.36086C15.5798 8.53597 16.5516 8.12354 17.6703 8.12354H42.1794L57.4828 23.427V44.4223H54.2398V25.5999H40.0058V11.3659H17.6703C17.443 11.3659 17.2345 11.4608 17.0447 11.6506C16.8553 11.8404 16.7607 12.049 16.7607 12.2763V59.7235C16.7607 59.9508 16.8553 60.1594 17.0447 60.3492C17.2345 60.539 17.443 60.6339 17.6703 60.6339H46.9327V63.8763H17.6703ZM64.9356 64.7837L54.8973 54.7454V64.3688H51.6542V49.1445H66.8785V52.3876H57.1301L67.2195 62.477L64.9356 64.7837Z" fill="#5F6368"/>
</svg>
