<svg width="131" height="129" viewBox="0 0 131 129" fill="none" xmlns="http://www.w3.org/2000/svg">
<rect width="130.379" height="129" rx="64.5" fill="#ABABAB"/>
<path fill-rule="evenodd" clip-rule="evenodd" d="M84.7469 51.6C84.7469 62.2867 75.991 70.95 65.1901 70.95C54.3892 70.95 45.6333 62.2867 45.6333 51.6C45.6333 40.9133 54.3892 32.25 65.1901 32.25C75.991 32.25 84.7469 40.9133 84.7469 51.6ZM78.2279 51.6C78.2279 58.7245 72.3907 64.5 65.1901 64.5C57.9895 64.5 52.1522 58.7245 52.1522 51.6C52.1522 44.4755 57.9895 38.7 65.1901 38.7C72.3907 38.7 78.2279 44.4755 78.2279 51.6Z" fill="white"/>
<path d="M65.1901 80.625C44.0871 80.625 26.1067 92.9716 19.2576 110.269C20.9261 111.909 22.6837 113.459 24.5227 114.913C29.6229 99.0323 45.6226 87.075 65.1901 87.075C84.7576 87.075 100.757 99.0323 105.858 114.913C107.696 113.459 109.454 111.909 111.123 110.269C104.273 92.9716 86.2931 80.625 65.1901 80.625Z" fill="white"/>
<ellipse cx="104.108" cy="112" rx="16.5406" ry="17" fill="#D9D9D9"/>
<g clip-path="url(#clip0_66_389)">
<path d="M106.173 113.132C106.173 114.305 105.249 115.254 104.108 115.254C102.967 115.254 102.043 114.305 102.043 113.132C102.043 111.959 102.967 111.009 104.108 111.009C105.249 111.009 106.173 111.959 106.173 113.132ZM110.399 107.813C111.224 107.813 111.892 108.499 111.892 109.347V113.368V116.779C111.892 117.682 111.179 118.415 110.3 118.415H97.9164C97.0373 118.415 96.3245 117.682 96.3245 116.779V113.365V109.347C96.3245 108.499 96.9926 107.813 97.8173 107.813H100.803L100.944 107.202C101.158 106.255 101.979 105.585 102.926 105.585H105.294C106.24 105.585 107.062 106.255 107.276 107.202L107.414 107.813H110.399ZM99.438 110.027C99.438 109.603 99.1024 109.258 98.69 109.258C98.2744 109.258 97.9388 109.603 97.9388 110.027C97.9388 110.451 98.2744 110.796 98.6868 110.796C99.1024 110.799 99.438 110.454 99.438 110.027ZM107.791 113.132C107.791 111.042 106.141 109.347 104.108 109.347C102.075 109.347 100.426 111.042 100.426 113.132C100.426 115.221 102.075 116.917 104.108 116.917C106.141 116.917 107.791 115.221 107.791 113.132Z" fill="#555555"/>
</g>
<defs>
<clipPath id="clip0_66_389">
<rect width="15.5676" height="16" fill="white" transform="translate(96.3245 104)"/>
</clipPath>
</defs>
</svg>
