<svg width="84" height="82" viewBox="0 0 84 82" fill="none" xmlns="http://www.w3.org/2000/svg">
<g clip-path="url(#clip0_1122_6508)">
<rect width="83.8222" height="82" rx="3.32628" fill="#ABABAB"/>
<path fill-rule="evenodd" clip-rule="evenodd" d="M60.9809 26.3161C60.9809 36.8086 52.2942 45.3145 41.5785 45.3145C30.8628 45.3145 22.176 36.8086 22.176 26.3161C22.176 15.8236 30.8628 7.31775 41.5785 7.31775C52.2942 7.31775 60.9809 15.8236 60.9809 26.3161ZM54.5134 26.3161C54.5134 33.3111 48.7223 38.9817 41.5785 38.9817C34.4347 38.9817 28.6435 33.3111 28.6435 26.3161C28.6435 19.3211 34.4347 13.6505 41.5785 13.6505C48.7223 13.6505 54.5134 19.3211 54.5134 26.3161Z" fill="white"/>
<path d="M41.5785 54.8136C20.642 54.8136 2.80359 66.9359 -3.99152 83.9193C-2.33618 85.5288 -0.592408 87.0512 1.23204 88.4789C6.292 72.8864 22.1654 61.1464 41.5785 61.1464C60.9916 61.1464 76.865 72.8865 81.925 88.479C83.7494 87.0512 85.4932 85.5288 87.1485 83.9193C80.3534 66.9359 62.515 54.8136 41.5785 54.8136Z" fill="white"/>
</g>
<defs>
<clipPath id="clip0_1122_6508">
<rect width="83.8222" height="82" rx="3.32628" fill="white"/>
</clipPath>
</defs>
</svg>
